<?xml version="1.0" encoding="UTF-8"?>
<svg id="Layer_1" xmlns="http://www.w3.org/2000/svg" xmlns:xlink="http://www.w3.org/1999/xlink" version="1.1" viewBox="0 0 68.9 64.8">
  <!-- Generator: Adobe Illustrator 29.2.1, SVG Export Plug-In . SVG Version: 2.1.0 Build 116)  -->
  <defs>
    <style>
      .st0, .st1 {
        fill: #053242;
      }

      .st1 {
        isolation: isolate;
        opacity: .9;
      }

      .st2 {
        fill: #096380;
      }

      .st3 {
        fill: #fff;
      }
    </style>
  </defs>
  <path class="st2" d="M67.3,11.7H1.6c0-2.3-.1-4.6,0-6.8.1-1.4,1.2-2.2,2.5-2.5.5,0,.9,0,1.4,0h57.8c2.9,0,3.9,1.1,4,4v5.3h0Z"/>
  <circle class="st3" cx="53.2" cy="6.8" r="1.2"/>
  <circle class="st3" cx="57.2" cy="6.8" r="1.2"/>
  <circle class="st3" cx="61.2" cy="6.8" r="1.2"/>
  <g>
    <path class="st1" d="M39.9,28.4c.2.3.5.5.8.7s.6.3,1,.4c.3.1.7,0,1,0,.3-.1.7-.2,1-.4.3-.2.5-.5.7-.8s.3-.6.4-1c0-.3,0-.7,0-1,0-.3-.3-.7-.3-.7,0-.1-.2-.3-.3-.4,0,0-.3-.3-.6-.5s-.6-.3-1-.4c-.3-.1-.7,0-1,0-.3.1-.7.2-1,.4-.3.2-.5.5-.7.8s-.3.6-.4,1c0,.3,0,.7,0,1,0,.3.2.6.4.9Z"/>
    <path class="st1" d="M48.8,44.9c-.3-.4-.7-.6-1.2-.8-.4-.2-.9-.3-1.4-.3s-1,0-1.4.2c-.5.2-.9.4-1.2.7-.4.3-.6.7-.8,1.2-.2.4-.3.9-.3,1.4s0,1,.2,1.4c.2.5.4.9.7,1.2.3.4.7.6,1.2.8.4.2.9.3,1.4.3s1,0,1.4-.2c.5-.2.9-.4,1.2-.7.4-.3.6-.7.8-1.2.2-.4.3-.9.3-1.4s0-1-.2-1.4c0-.5-.3-.9-.7-1.2Z"/>
    <path class="st0" d="M28.4,39.1s0,0-.1-.3c0,0-.3-.9-.7-1.4-.4-.5-.9-.9-1.4-1.2s-1.1-.5-1.8-.6c-.6,0-1.2,0-1.9,0-.6.2-1.2.4-1.7.8-.5.4-.9.9-1.2,1.4-.3.5-.5,1.1-.6,1.8-.1.6,0,1.2.1,1.9.2.6.4,1.2.8,1.7s.9.9,1.4,1.2,1.1.5,1.8.6c.6,0,1.2,0,1.9,0,.6-.2,1.2-.4,1.7-.8.5-.4.9-.9,1.2-1.4.3-.5.5-1.1.6-1.8.1-.6-.1-1.5-.1-1.5.1-.3,0-.4,0-.4Z"/>
    <path class="st0" d="M1.5,15v42.9c0,3.3,1,4.3,4.3,4.3h57.2c3.3,0,4.3-1,4.3-4.4V15h-33.3s-32.5,0-32.5,0ZM34.9,41.5c0,.2,0,.4-.3.4l-2.4.5c-.2,0-.4.2-.4.4l-.6,1.4c-.1.2-.1.4,0,.6l1.3,2c0,.2,0,.4,0,.5l-1.6,1.7c-.1,0-.4.2-.5,0l-2-1.3c-.2,0-.4,0-.6,0l-1.4.6c-.2,0-.3.2-.4.4l-.5,2.4c0,.2-.2.3-.4.3h-2.3c-.2,0-.4,0-.4-.3l-.5-2.4c0-.2-.2-.4-.4-.4l-1.4-.6c-.2,0-.4,0-.6,0l-2,1.3c-.2,0-.4,0-.5,0l-1.6-1.6c-.1,0-.2-.4-.1-.5l1.3-2c.1-.2.1-.4,0-.6l-.6-1.4c-.1-.2-.2-.3-.4-.4l-2.4-.5c-.2,0-.3-.2-.3-.4v-2.3c0-.2.1-.4.3-.4l2.4-.5c.2,0,.4-.2.4-.4l.6-1.4c.1-.2.1-.4,0-.6l-1.3-2c-.1-.2-.1-.4.1-.5l1.6-1.6c.1-.1.4-.2.5-.1l2,1.3c.2,0,.4,0,.6,0l1.4-.6c.2,0,.3-.2.4-.4l.5-2.4c0-.2.2-.3.4-.3h2.3c.2,0,.4.1.4.3l.5,2.4c0,.2.2.4.4.4l1.4.6c.2,0,.4,0,.6,0l2-1.3c.2-.1.4-.1.5.1l1.6,1.6c0,0,.2.4,0,.5l-1.3,2c-.1.2-.1.4,0,.6l.6,1.4c.1.2.1.3.1.3,0,0,.1,0,.3,0l2.4.5c.2,0,.3.2.3.4,0,0,0,2.2,0,2.2ZM44.9,22.3c0,.1,0,.3.2.4l.9.9c0,.1.3.2.4.2l2-.2c0,0,.3.1.3.2l.6,2c0,.1,0,.3-.2.4l-1.8.8c0,.1-.2.2-.3.4l-.3,1.3c0,.1,0,.3,0,.5l1.2,1.6c0,.1,0,.3,0,.4l-1.5,1.5c0,0-.3,0-.4,0l-1.6-1.1c0-.1-.3-.1-.5-.1l-1.3.3c0,0-.3.2-.4.3l-.7,1.9c0,0-.2.2-.4.2l-2-.5c0,0-.2-.2-.2-.3l.2-2c0-.1,0-.3-.2-.4l-1-1c0-.1-.3-.2-.4-.2l-2,.2c0,.1-.3,0-.3-.2l-.6-2c0-.1,0-.3.2-.4l1.8-.8c0-.1.2-.2.3-.4l.3-1.3c0-.1,0-.3,0-.5l-1.2-1.6c0-.1,0-.3,0-.4l1.5-1.5c0-.1.3-.1.4,0l1.6,1.1c0,.1.3.1.5.1l1.3-.3c0,0,.3-.2.4-.3l.8-1.8c0-.1.2-.2.4-.2l2,.5M54.7,48.3l-1.9.6c0,0-.3.2-.4.3l-.6,1.3c0,0,0,.4,0,.5l.9,1.7c0,0,0,.3,0,.4l-1.6,1.4c0,0-.3,0-.4,0l-1.6-1.1c0,0-.3,0-.5,0l-1.4.4c-.2,0-.3.2-.4.3l-.6,2c0,0-.2.2-.4.2l-2.1-.4c-.2,0-.3-.2-.3-.3v-2c0-.2-.2-.3-.4-.4l-1.2-.8c0,0-.3,0-.5,0l-1.9.5c0,0-.3,0-.4-.2l-1-1.9c0,0,0-.3,0-.4l1.5-1.3c0,0,.2-.3.2-.5v-1.4c0-.2-.2-.4-.3-.4l-1.6-1.2c0,0-.2-.3,0-.4l.8-2c0,0,.2-.2.4-.2l2,.3c.2,0,.4,0,.5-.2l1.1-1c0,0,.2-.3.2-.5v-2c0-.2,0-.3.2-.4l2-.6c0,0,.3,0,.4.2l1,1.7c0,0,.3.3.4.3l1.3.4c0,0,.4,0,.5,0l1.5-1.3c0,0,.3,0,.4,0l1.7,1.2c0,0,.2.3,0,.4l-.8,1.8c0,0,0,.4,0,.5l.7,1.3c0,0,0,.3,0,.3h.3l2,.3c.2,0,.3.2.3.3l.2,2.3c0,0,0,.3-.3.3Z"/>
  </g>
  <g>
    <path class="st0" d="M48.8,44.9c-.3-.4-.7-.6-1.2-.8-.4-.2-.9-.3-1.4-.3s-1,0-1.4.2c-.5.2-.9.4-1.2.7-.4.3-.6.7-.8,1.2-.2.4-.3.9-.3,1.4s0,1,.2,1.4c.2.5.4.9.7,1.2.3.4.7.6,1.2.8.4.2.9.3,1.4.3s1,0,1.4-.2c.5-.2.9-.4,1.2-.7.4-.3.6-.7.8-1.2.2-.4.3-.9.3-1.4s0-1-.2-1.4c0-.5-.3-.9-.7-1.2Z"/>
    <path class="st0" d="M39.9,28.4c.2.3.5.5.8.7s.6.3,1,.4c.3.1.7,0,1,0,.3-.1.7-.2,1-.4.3-.2.5-.5.7-.8s.3-.6.4-1c0-.3,0-.7,0-1,0-.3-.3-.7-.3-.7,0-.1-.2-.3-.3-.4,0,0-.3-.3-.6-.5s-.6-.3-1-.4c-.3-.1-.7,0-1,0-.3.1-.7.2-1,.4-.3.2-.5.5-.7.8s-.3.6-.4,1c0,.3,0,.7,0,1,0,.3.2.6.4.9Z"/>
    <path class="st0" d="M26.7,44.1c.5-.4.9-.9,1.2-1.4.3-.5.5-1.1.6-1.8.1-.6-.1-1.5-.1-1.5,0-.2-.1-.3,0-.3,0,0,0,0-.1-.3,0,0-.2-.4-.4-.9-.6,2.2-1.2,4.4-1.8,6.5.3,0,.5-.2.6-.3Z"/>
    <path class="st0" d="M34,15c-.5,2.2-2.4,9.1-4.5,17.2l.9-.6c.2-.1.4-.1.5.1l1.6,1.6c0,0,.2.4,0,.5l-1.3,2c-.1.2-.1.4,0,.6l.6,1.4c.1.2.1.3.1.3,0,0,0,0,.3,0l2.4.5c.2,0,.3.2.3.4v2.3c0,.2,0,.4-.3.4l-2.4.5c-.2,0-.4.2-.4.4l-.6,1.4c-.1.2-.1.4,0,.6l1.3,2c0,.2,0,.4,0,.5l-1.7,1.8c-.1,0-.4.2-.5,0l-2-1.3c-.2,0-.4,0-.6,0l-1.4.6c-.2,0-.3.2-.4.4l-.5,2.4c0,.2-.2.3-.4.3h-.7c-1.2,4.5-2.2,8.3-2.9,10.8h41.6c3.3,0,4.3-1,4.3-4.4V15.1h-33.3ZM35.3,29.8l-.6-2c0-.1,0-.3.2-.4l1.8-.8c0-.1.2-.2.3-.4l.3-1.3c0-.1,0-.3,0-.5l-1.2-1.6c0-.1,0-.3,0-.4l1.5-1.5c0-.1.3-.1.4,0l1.6,1.1c0,.1.3.1.5.1l1.3-.3c0,0,.3-.2.4-.3l.8-1.8c0-.1.2-.2.4-.2l2,.5c0,0,.2.2.2.3l-.2,2c0,.1,0,.3.2.4l.9.9c0,.1.3.2.4.2l2-.2c0,0,.3.1.3.2l.6,2c0,.1,0,.3-.2.4l-1.8.8c0,.1-.2.2-.3.4l-.3,1.3c0,.1,0,.3,0,.5l1.2,1.6c0,.1,0,.3,0,.4l-1.5,1.5c0,0-.3,0-.4,0l-1.6-1.1c0-.1-.3-.1-.5-.1l-1.3.3c0,0-.3.2-.4.3l-.7,1.9c0,0-.2.2-.4.2l-2-.5c0,0-.2-.2-.2-.3l.2-2c0-.1,0-.3-.2-.4l-1-1c0-.1-.3-.2-.4-.2l-2,.2c0,.1-.3,0-.3-.2ZM54.7,48.3l-1.9.6c0,0-.3.2-.4.3l-.6,1.3c0,0,0,.4,0,.5l.9,1.7c0,0,0,.3,0,.4l-1.6,1.4c0,0-.3,0-.4,0l-1.6-1.1c0,0-.3,0-.5,0l-1.4.4c-.2,0-.3.2-.4.3l-.6,2c0,0-.2.2-.4.2l-2.1-.4c-.2,0-.3-.2-.3-.3v-2c0-.2-.2-.3-.4-.4l-1.2-.8c0,0-.3,0-.5,0l-1.9.5c0,0-.3,0-.4-.2l-1-1.9c0,0,0-.3,0-.4l1.5-1.3c0,0,.2-.3.2-.5v-1.4c0-.2-.2-.4-.3-.4l-1.6-1.2c0,0-.2-.3,0-.4l.8-2c0,0,.2-.2.4-.2l2,.3c.2,0,.4,0,.5-.2l1.1-1c0,0,.2-.3.2-.5v-2c0-.2,0-.3.2-.4l2-.6c0,0,.3,0,.4.2l1,1.7c0,0,.3.3.4.3l1.3.4c0,0,.4,0,.5,0l1.5-1.3c0,0,.3,0,.4,0l1.7,1.2c0,0,.2.3,0,.4l-.8,1.8c0,0,0,.4,0,.5l.7,1.3c0,0,0,.3,0,.3h.3l2,.3c.2,0,.3.2.3.3l.2,2.3c0,0,0,.3-.3.3Z"/>
  </g>
  <path class="st3" d="M39,31c0,0,.2.3.2.4l-.2,2c0,.1,0,.3.2.3l2,.5c.2,0,.3-.1.4-.2l.7-1.9c0,0,.3-.3.4-.3l1.3-.3c.2,0,.4,0,.5,0l1.6,1.1c.1,0,.3,0,.4,0l1.5-1.5c0-.1,0-.3,0-.4l-1.2-1.6c0-.2,0-.4,0-.5l.3-1.3c0-.2.2-.3.3-.4l1.8-.8c.2-.1.2-.3.2-.4l-.6-2c0,0-.2-.2-.3-.2l-2,.2c0,0-.3,0-.4-.2l-.9-.9c0-.1-.2-.3-.2-.4l.2-2c0,0,0-.3-.2-.3l-2-.5c-.2,0-.3,0-.4.2l-.8,1.8c-.1,0-.3.3-.4.3l-1.3.3c-.2,0-.4,0-.5,0l-1.6-1.1c0,0-.3,0-.4,0l-1.5,1.5c-.1.1-.1.3,0,.4l1.2,1.6c0,.2,0,.4,0,.5l-.3,1.3c-.1.2-.2.3-.3.4l-1.8.8c-.2.1-.2.3-.2.4l.6,2c0,.2.2.3.3.2l2-.2c.1,0,.3,0,.4.2l1,1ZM39.5,26.5c0-.4.2-.7.4-1,.2-.3.4-.6.7-.8.3-.2.7-.3,1-.4.3,0,.7,0,1,0,.4,0,.7.2,1,.4.3.2.6.5.6.5,0,0,.2.3.3.4,0,0,.2.4.3.7,0,.3,0,.7,0,1,0,.4-.2.7-.4,1-.2.3-.4.6-.7.8-.3.2-.7.3-1,.4-.3,0-.7,0-1,0-.4-.1-.7-.2-1-.4-.3-.2-.6-.4-.8-.7-.2-.3-.4-.6-.4-.9-.1-.3-.1-.7,0-1Z"/>
  <path class="st3" d="M54.8,45.8c0-.1,0-.3-.3-.3l-2-.3h-.3s0-.2-.1-.3l-.7-1.3c0-.1,0-.4,0-.5l.8-1.8c0-.1,0-.3-.1-.4l-1.7-1.2c0,0-.3,0-.4,0l-1.5,1.3c-.1.1-.4.1-.5.1l-1.3-.4c-.1,0-.3-.2-.4-.3l-1-1.7c0-.2-.3-.2-.4-.2l-2,.6c-.2,0-.3.2-.3.4v2c.1.2,0,.4,0,.5l-1.1,1c0,.2-.3.2-.5.2l-2-.3c-.2,0-.3,0-.4.2l-.8,2c-.1,0,0,.3,0,.4l1.6,1.2c.1,0,.2.2.2.4v1.4c0,.2,0,.4,0,.5l-1.5,1.3c-.1,0-.2.3-.1.4l1,1.9c.1.2.3.2.4.2l1.9-.5c.2,0,.4,0,.5,0l1.2.8c.2.1.3.2.3.4v2c0,0,.2.3.4.3l2.1.4c.2,0,.3-.1.4-.2l.6-2c0-.1.2-.3.4-.3l1.4-.4c.2,0,.4,0,.5,0l1.6,1.1c.1,0,.3,0,.4,0l1.6-1.4c.1,0,.2-.3.1-.4l-.9-1.7c0-.1,0-.4,0-.5l.6-1.3c.1-.1.3-.3.4-.3l1.9-.6c.2,0,.3-.2.3-.3l-.2-2.3ZM49.4,48.9c-.2.5-.4.9-.8,1.2-.3.3-.7.5-1.2.7-.4,0-.9.2-1.4.2s-1-.1-1.4-.3c-.5-.2-.9-.4-1.2-.8-.3-.3-.5-.7-.7-1.2,0-.4-.2-.9-.2-1.4s0-1,.3-1.4c.2-.5.4-.9.8-1.2.3-.3.7-.5,1.2-.7.4-.1.9-.2,1.4-.2s1,0,1.4.3c.5.2.9.4,1.2.8.4.3.6.7.7,1.2,0,.4.2.9.2,1.4s-.1,1-.3,1.4Z"/>
  <path class="st3" d="M34.6,38.9l-2.4-.5c-.2,0-.3,0-.3,0,0,0,0,0,0-.3l-.6-1.4c0-.2,0-.4,0-.6l1.3-2c0-.1,0-.4-.1-.5l-1.6-1.6c0-.2-.3-.2-.5,0l-2,1.3c-.2,0-.4,0-.6,0l-1.4-.6c-.2,0-.4-.2-.4-.4l-.5-2.4c0-.2-.2-.3-.4-.3h-2.3c-.2,0-.4.1-.4.3l-.5,2.4c0,.2-.2.3-.4.4l-1.4.6c-.2,0-.4,0-.6,0l-2-1.3c-.1,0-.4,0-.5,0l-1.6,1.6c-.2,0-.2.3,0,.5l1.3,2c0,.2,0,.4,0,.6l-.6,1.4c0,.2-.2.4-.4.4l-2.4.5c-.2,0-.3.2-.3.4v2.3c0,.2.1.4.3.4l2.4.5c.2,0,.3.2.4.4l.6,1.4c0,.2,0,.4,0,.6l-1.3,2c-.1.1,0,.4,0,.5l1.6,1.6c0,.2.3.2.5,0l2-1.3c.2,0,.4,0,.6,0l1.4.6c.2,0,.4.2.4.4l.5,2.4c0,.2.2.3.4.3h2.3c.2,0,.4-.1.4-.3l.5-2.4c0-.2.2-.3.4-.4l1.4-.6c.2,0,.4,0,.6,0l2,1.3c0,.1.4,0,.5,0l1.6-1.7c.2,0,.2-.3.1-.5l-1.3-2c-.1-.2-.1-.4,0-.6l.6-1.4c0-.2.2-.4.4-.4l2.4-.5c.2,0,.3-.2.3-.4v-2.2c0-.2,0-.4-.3-.4ZM28.5,41c0,.7-.3,1.3-.6,1.8-.3.5-.7,1-1.2,1.4-.5.4-1.1.6-1.7.8-.7,0-1.3.2-1.9,0-.7,0-1.3-.3-1.8-.6s-1-.7-1.4-1.2c-.4-.5-.6-1.1-.8-1.7,0-.7-.2-1.3,0-1.9,0-.7.3-1.3.6-1.8.3-.5.7-1,1.2-1.4.5-.4,1.1-.6,1.7-.8.7-.1,1.3-.2,1.9-.1.7.1,1.3.3,1.8.6.5.3,1,.7,1.4,1.2.4.5.7,1.4.7,1.4.1.2.1.3.1.3,0,0,0,.1,0,.4,0,0,.2.9,0,1.5Z"/>
</svg>