<?xml version="1.0" encoding="UTF-8"?>
<svg id="Layer_1" xmlns="http://www.w3.org/2000/svg" xmlns:xlink="http://www.w3.org/1999/xlink" version="1.1" viewBox="0 0 100.6 62.5">
  <!-- Generator: Adobe Illustrator 29.2.1, SVG Export Plug-In . SVG Version: 2.1.0 Build 116)  -->
  <defs>
    <style>
      .st0 {
        fill: #252f3e;
      }

      .st1 {
        fill: #f90;
      }

      .st2 {
        fill: #fff;
        stroke: #053242;
        stroke-width: 4px;
      }
    </style>
  </defs>
  <path class="st2" d="M52.9,4.3c-9.3-.2-17.9,5.8-20.9,15h0c-.3,1-.9,2.1-2,2.8-1.1.6-2.3.6-3.2.5-5.1-.5-9.3,1.2-12.2,4s-4.5,7-4.1,12c.1.9,0,1.9-.7,2.7-.5.7-1.3,1.1-1.8,1.3-4.4,2.2-6,6.9-4,10.9h0c.9,1.8,2.1,2.9,3.5,3.6,1.4.7,3.2,1.1,5.3,1.1h68.9c2.9,0,5.5-.7,8-2.2,5.6-3.3,8.6-9.3,7.6-15.3-1-6.2-5.7-10.9-12.3-12h0c-1.2-.2-2.5-.2-3.9-.1-.5,0-1,.1-1.5.1-.9.1-1.9.2-2.8.2h-2.1c0,.1,0-2.1,0-2.1,0-1,0-1.3-.2-2.1-.2-1.7-.4-3.3-.8-4.9-2.7-9.2-10.8-15.3-20.7-15.5"/>
  <path class="st0" d="M41.7,36c0,.4,0,.8,0,1s.2.5.4.8c0,0,0,.2,0,.3s0,.2-.2.3l-.7.5c-.2.1-.3.1-.4.1s-.2,0-.3-.2c-.2-.2-.3-.3-.4-.5,0-.2-.2-.4-.4-.7-.9,1-2,1.6-3.4,1.6s-1.7-.3-2.3-.8-.9-1.3-.9-2.2.3-1.7,1.1-2.3c.7-.6,1.6-.9,2.8-.9s.8,0,1.2,0,.9,0,1.3.2v-.8c0-.9-.2-1.5-.5-1.8-.4-.3-1-.5-1.9-.5s-.8,0-1.2.1-.8.2-1.2.4c-.2.1-.3.1-.4.1h-.2c-.2,0-.2-.1-.2-.3v-.5c0-.2,0-.3,0-.4s.2-.2.3-.2c.4-.2.9-.4,1.5-.5s1.2-.2,1.8-.2c1.4,0,2.4.3,3,.9s1,1.5,1,2.8v3.6h0ZM37,37.8c.4,0,.8,0,1.2-.2.4,0,.8-.4,1.1-.7s.3-.4.4-.7c0-.3,0-.6,0-1v-.5c-.3,0-.7,0-1.1-.2-.4,0-.7,0-1.1,0-.8,0-1.3,0-1.7.4-.4.3-.6.7-.6,1.3s0,.9.4,1.2c.4.3.8.5,1.3.5h0ZM46.3,39c-.2,0-.3,0-.4,0,0,0-.2-.2-.2-.4l-2.7-8.7c0-.2,0-.4,0-.4,0-.2,0-.3.3-.3h1.1c.2,0,.4,0,.5.1s.2.2.2.4l1.9,7.5,1.8-7.5c0-.2,0-.4.2-.4,0-.1.3-.1.5-.1h.9c.2,0,.4,0,.5.1s.2.2.2.4l1.8,7.6,2-7.6c0-.2,0-.4.2-.4,0-.1.2-.1.5-.1h1.1c.2,0,.3.1.3.3v.2c0,.1,0,.2,0,.3l-2.8,8.7c0,.2,0,.4-.2.4-.3,0-.4,0-.6,0h-1c-.2,0-.4,0-.5,0s-.2-.2-.2-.4l-1.8-7.3-1.8,7.3c0,.2,0,.4-.2.4-.1,0-.2,0-.4,0h-1ZM61.1,39.3c-.6,0-1.2,0-1.8-.2-.6,0-1-.3-1.3-.4-.2,0-.3-.2-.4-.3,0,0,0-.2,0-.3v-.6c0-.2,0-.3.3-.3h.2c0,0,.2,0,.3,0,.4.2.8.3,1.3.4.5,0,.9,0,1.4,0s1.3,0,1.7-.4c.4-.2.6-.6.6-1.1s0-.6-.3-.8-.6-.4-1.2-.6l-1.7-.5c-.8-.3-1.5-.6-1.8-1.2-.4-.5-.6-1.1-.6-1.6s0-.9.3-1.3.5-.7.8-.9c.3-.3.7-.4,1.2-.6.5-.1.9-.2,1.5-.2h.8c.3,0,.5.1.7.1.2.1.5.1.7.2s.4.1.5.2c.2.1.3.2.3.3,0,.1,0,.2,0,.4v.5c0,.2,0,.4-.3.4s-.2,0-.4-.1c-.7-.3-1.4-.4-2.2-.4s-1.2.1-1.5.3c-.4.2-.5.5-.5,1s0,.6.3.8.7.4,1.3.6l1.6.5c.8.3,1.4.6,1.8,1.1s.5,1,.5,1.6,0,.9-.3,1.3c-.2.4-.5.7-.8,1-.4.3-.8.5-1.3.6-.6.2-1.1.3-1.7.3h0Z"/>
  <path class="st1" d="M63.3,44.8c-3.8,2.7-9.3,4.2-14,4.2s-12.6-2.4-17.1-6.4c-.4-.3,0-.7.4-.5,4.9,2.8,10.9,4.5,17.2,4.5s8.8-.9,13.1-2.6c.4-.4,1,.3.4.8h0ZM64.8,43c-.5-.6-3.2-.3-4.4,0-.4,0-.4-.3,0-.5,2.2-1.5,5.7-1.1,6.1-.6s0,4-2.1,5.7c-.3.3-.6,0-.5-.2.5-1.1,1.5-3.7,1-4.3h0Z"/>
</svg>