<?xml version="1.0" encoding="UTF-8"?>
<svg id="Layer_1" xmlns="http://www.w3.org/2000/svg" xmlns:xlink="http://www.w3.org/1999/xlink" version="1.1" viewBox="0 0 100.6 62.5">
  <!-- Generator: Adobe Illustrator 29.2.1, SVG Export Plug-In . SVG Version: 2.1.0 Build 116)  -->
  <defs>
    <style>
      .st0 {
        fill: #035bda;
        fill-rule: evenodd;
      }

      .st1 {
        fill: #fff;
        stroke: #143140;
        stroke-width: 4px;
      }
    </style>
  </defs>
  <path class="st1" d="M52.9,4.3c-9.3-.2-17.9,5.8-20.9,15h0c-.3,1-.9,2.1-2,2.8-1.1.6-2.3.6-3.2.5-5.1-.5-9.3,1.2-12.2,4s-4.5,7-4.1,12c.1.9,0,1.9-.7,2.7-.5.7-1.3,1.1-1.8,1.3-4.4,2.2-6,6.9-4,10.9h0c.9,1.8,2.1,2.9,3.5,3.6,1.4.7,3.2,1.1,5.3,1.1h68.9c2.9,0,5.5-.7,8-2.2,5.6-3.3,8.6-9.3,7.6-15.3-1-6.2-5.7-10.9-12.3-12h0c-1.2-.2-2.5-.2-3.9-.1-.5,0-1,.1-1.5.1-.9.1-1.9.2-2.8.2h-2.1c0,.1,0-2.1,0-2.1,0-1,0-1.3-.2-2.1-.2-1.7-.4-3.3-.8-4.9-2.7-9.2-10.8-15.3-20.7-15.5"/>
  <path class="st0" d="M54.9,27.4l-4.5,8.8,7.9,8.9-14.7,1.6,22.9.3-11.6-19.6ZM54,23.9l-10.4,8.4-7.6,12.6,6.5-.6,11.5-20.4h0Z"/>
</svg>