<?xml version="1.0" encoding="UTF-8"?>
<svg id="Layer_1" xmlns="http://www.w3.org/2000/svg" xmlns:xlink="http://www.w3.org/1999/xlink" version="1.1" viewBox="0 0 68.7 69.1">
  <!-- Generator: Adobe Illustrator 29.2.1, SVG Export Plug-In . SVG Version: 2.1.0 Build 116)  -->
  <defs>
    <style>
      .st0, .st1 {
        fill: #143140;
      }

      .st1 {
        opacity: .6;
      }

      .st1, .st2 {
        isolation: isolate;
      }

      .st2 {
        opacity: .3;
      }

      .st2, .st3 {
        fill: #2b617d;
      }
    </style>
  </defs>
  <g>
    <path class="st1" d="M58.7,30.5h0c-3.1,5.4-6.2,10.7-9.3,16-.3.5-.9.6-1.4.4-4.5-2.6-9-5.2-13.5-7.9-.3-.2-.8,0-1,.2h0c-2.4,3.4-4.8,6.8-7.2,10.2-.4.5-.8.7-1.4.7h-11.9c-.4,0-.8.3-.8.8v7.7c0,.5-.4,1-1,1h-4c-.6,0-1-.5-1-1v-23c0-.5.4-1,1-1h4c.6,0,1,.5,1,1v7.8c0,.3.3.7.6.7h9.3c.2,0,.6,0,.7-.3,1.9-2.6,3.7-5.3,5.6-7.9h0c.1-.2,0-.3-.1-.4-4.4-2.5-8.7-5.1-13.2-7.6-.5-.3-.6-.9-.4-1.4,2.9-5.1,5.9-10.1,8.8-15.2.3-.5.9-.6,1.4-.4l33.8,19.6c0-.1,0,0,0,0h0Z"/>
    <path class="st0" d="M58.7,30.5h0c-3.1,5.4-6.2,10.7-9.3,16-.3.5-.9.6-1.4.4-4.5-2.6-9-5.2-13.5-7.9-.3-.2-.8,0-1,.2h0c-2.4,3.4-4.8,6.8-7.2,10.2-.4.5-.8.7-1.4.7h-11.9c-.4,0-.8.3-.8.8v7.7c0,.5-.4,1-1,1h-4c-.6,0-1-.5-1-1v-23c0-.5.4-1,1-1h4c.6,0,1,.5,1,1v7.8c0,.3.3.7.6.7h9.3c.2,0,.6,0,.7-.3,1.9-2.6,3.7-5.3,5.6-7.9h0c.1-.2,0-.3-.1-.4-4.4-2.5-8.7-5.1-13.2-7.6-.5-.3-.6-.9-.4-1.4,2.9-5.1,5.9-10.1,8.8-15.2.3-.5.9-.6,1.4-.4l33.8,19.6c0-.1,0,0,0,0h0Z"/>
  </g>
  <g>
    <path class="st2" d="M59.2,35.4h0l2,1.2c1.5.8,1.9,2.7,1.1,4.2l-2.9,5.1c-.8,1.3-2.4,1.7-3.7,1h0c-1.3-.8-1.7-2.4-1-3.7l4.5-7.8h0Z"/>
    <path class="st3" d="M59.2,35.4h0l2,1.2c1.5.8,1.9,2.7,1.1,4.2l-2.9,5.1c-.8,1.3-2.4,1.7-3.7,1h0c-1.3-.8-1.7-2.4-1-3.7l4.5-7.8h0Z"/>
  </g>
</svg>