<?xml version="1.0" encoding="UTF-8"?>
<svg id="Layer_1" xmlns="http://www.w3.org/2000/svg" xmlns:xlink="http://www.w3.org/1999/xlink" version="1.1" viewBox="0 0 75.8 64.8">
  <!-- Generator: Adobe Illustrator 29.2.1, SVG Export Plug-In . SVG Version: 2.1.0 Build 116)  -->
  <defs>
    <style>
      .st0 {
        fill: none;
      }

      .st1 {
        fill: #143140;
      }

      .st2 {
        fill: #fff;
      }

      .st3 {
        fill: #2b617d;
      }

      .st4 {
        clip-path: url(#clippath);
      }
    </style>
    <clipPath id="clippath">
      <rect class="st0" x="1.7" y="1.5" width="72.3" height="61.4"/>
    </clipPath>
  </defs>
  <g class="st4">
    <g>
      <path class="st3" d="M74,14.5h-20.4v48.3h20.4V14.5Z"/>
      <path class="st1" d="M53.6,1.5h-31.5v61.4h31.5V1.5Z"/>
      <path class="st3" d="M22.1,27.5H1.7v35.3h20.4V27.5Z"/>
      <path class="st2" d="M10.4,33.9h-5.4v8.1h5.4v-8.1Z"/>
      <path class="st2" d="M18.8,33.9h-5.4v8.1h5.4v-8.1Z"/>
      <path class="st2" d="M10.4,47h-5.4v8h5.4v-8Z"/>
      <path class="st2" d="M18.8,47h-5.4v8h5.4v-8Z"/>
      <path class="st3" d="M32.2,33.9h-5.4v8.1h5.4v-8.1Z"/>
      <path class="st3" d="M40.6,33.9h-5.4v8.1h5.4v-8.1Z"/>
      <path class="st3" d="M32.2,47h-5.4v8h5.4v-8Z"/>
      <path class="st3" d="M40.6,47h-5.4v8h5.4v-8Z"/>
      <path class="st3" d="M49,33.9h-5.4v8.1h5.4v-8.1Z"/>
      <path class="st3" d="M49,47h-5.4v8h5.4v-8Z"/>
      <path class="st3" d="M32.2,7.9h-5.4v8.1h5.4V7.9Z"/>
      <path class="st3" d="M40.6,7.9h-5.4v8.1h5.4V7.9Z"/>
      <path class="st2" d="M32.2,20.9h-5.4v8.1h5.4v-8.1Z"/>
      <path class="st3" d="M40.6,20.9h-5.4v8.1h5.4v-8.1Z"/>
      <path class="st3" d="M49,7.9h-5.4v8.1h5.4V7.9Z"/>
      <path class="st3" d="M49,20.9h-5.4v8.1h5.4v-8.1Z"/>
      <path class="st2" d="M62.3,33.9h-5.4v8.1h5.4v-8.1Z"/>
      <path class="st2" d="M70.7,33.9h-5.4v8.1h5.4v-8.1Z"/>
      <path class="st2" d="M62.3,47h-5.4v8h5.4v-8Z"/>
      <path class="st2" d="M70.7,47h-5.4v8h5.4v-8Z"/>
      <path class="st2" d="M62.3,20.9h-5.4v8.1h5.4v-8.1Z"/>
      <path class="st2" d="M70.7,20.9h-5.4v8.1h5.4v-8.1Z"/>
    </g>
  </g>
</svg>