<?xml version="1.0" encoding="UTF-8"?>
<svg id="Layer_1" xmlns="http://www.w3.org/2000/svg" xmlns:xlink="http://www.w3.org/1999/xlink" version="1.1" viewBox="0 0 100.6 62.5">
  <!-- Generator: Adobe Illustrator 29.2.1, SVG Export Plug-In . SVG Version: 2.1.0 Build 116)  -->
  <defs>
    <style>
      .st0 {
        fill: none;
      }

      .st1 {
        fill: #143140;
      }

      .st2 {
        fill: #2b617d;
      }

      .st3 {
        clip-path: url(#clippath);
      }
    </style>
    <clipPath id="clippath">
      <rect class="st0" x="2.4" y="1.9" width="96" height="58"/>
    </clipPath>
  </defs>
  <g class="st3">
    <g>
      <path class="st1" d="M76,26.7c2.8-.1,5.7-.6,8.4-.2,7.3,1.1,12.5,6.6,13.7,13.6,1.1,6.9-2.1,13.8-8.3,17.4-2.7,1.6-5.6,2.4-8.8,2.4H13.8c-4.6,0-8.2-1.6-10.3-5.8s-.5-10.9,4.7-13.6c1-.5,1.5-.9,1.4-2.2-.9-11,7.1-19.1,18-18.1,1.7.2,2.4-.1,3-1.9C33.8,8.3,43,1.7,52.9,1.9c10.5.3,19.1,6.9,21.9,17.1.7,2.6.8,5.3,1.2,7.7h0Z"/>
      <path class="st2" d="M76,26.6c2.6-.3,6-.7,10.3.3,7.3,2,11,7.5,11.9,14.3,1,6.9-2.1,13.2-7.7,16.6-2.5,1.5-5.1,2.2-8,2.2H21.1c-4.2,0-7.5-1.5-9.4-5.3-2.3-4.6-.4-10,4.3-12.4.9-.5,1.4-.9,1.3-2-.8-10.1,6.5-17.5,16.5-16.5,1.6.1,2.2-.1,2.7-1.8,2.8-9.2,11.2-15.3,20.3-15,9.6.3,15.8,4,18.1,12.6.7,2.4.8,4.8,1.1,7h0Z"/>
    </g>
  </g>
</svg>