<?xml version="1.0" encoding="UTF-8"?>
<svg id="Layer_1" xmlns="http://www.w3.org/2000/svg" xmlns:xlink="http://www.w3.org/1999/xlink" version="1.1" viewBox="0 0 133.2 83.4">
  <!-- Generator: Adobe Illustrator 29.2.1, SVG Export Plug-In . SVG Version: 2.1.0 Build 116)  -->
  <defs>
    <style>
      .st0, .st1 {
        fill: #143140;
      }

      .st1 {
        isolation: isolate;
        opacity: .6;
      }

      .st2 {
        fill: #fff;
      }

      .st3 {
        fill: #2b617d;
      }
    </style>
  </defs>
  <path class="st3" d="M101.8,35.8h0c3.8,0,7.7-.8,11.5-.3,10,1.6,17.1,9,18.7,18.5,1.6,9.4-2.1,19-10.6,24-3.7,2.2-8.4,3-12.8,3-30.7,0-61.3,0-92,0s-11.2-2.2-14.1-7.9c-3.4-6.8-.6-14.8,6.5-18.4,1.4-.7,2.1-1.3,1.9-3-1.3-15,9.7-26,24.7-24.7,2.4.2,3.3-.2,4.1-2.6C44,10.8,56.6,1.8,70.3,2.2c14.4.4,26.2,9.4,30,23.2.9,3.4,1,7.2,1.5,10.4h0Z"/>
  <g>
    <path class="st1" d="M101.8,35.7c3.6-.4,8.2-.9,14.2.4,10.1,2.7,15.1,10.2,16.3,19.4,1.3,9.4-2.8,18-10.6,22.6-3.3,2-7,3-10.9,3H26.7c-5.7,0-10.2-2-12.9-7.3-3.2-6.2-.6-13.6,5.9-16.9,1.2-.6,1.9-1.2,1.7-2.7-1.1-13.7,8.9-23.8,22.5-22.5,2.1.2,3-.2,3.7-2.4,4-12.4,15.5-20.6,28-20.3,13.1.3,21.6,5.5,24.8,17.2.8,3.2.9,6.5,1.4,9.5h0Z"/>
    <path class="st0" d="M101.8,35.7c3.6-.4,8.2-.9,14.2.4,10.1,2.7,15.1,10.2,16.3,19.4,1.3,9.4-2.8,18-10.6,22.6-3.3,2-7,3-10.9,3H26.7c-5.7,0-10.2-2-12.9-7.3-3.2-6.2-.6-13.6,5.9-16.9,1.2-.6,1.9-1.2,1.7-2.7-1.1-13.7,8.9-23.8,22.5-22.5,2.1.2,3-.2,3.7-2.4,4-12.4,15.5-20.6,28-20.3,13.1.3,21.6,5.5,24.8,17.2.8,3.2.9,6.5,1.4,9.5h0Z"/>
  </g>
  <path class="st2" d="M78.4,42.7c-.2,0-.2,0-.2,0-1.3-2-3.4-2.4-5.7-1-4,2.5-8.2,4.7-12.3,7.1-.8.5-.8.6,0,1.1,4.1,2.4,8.3,4.8,12.5,7.2,2.2,1.3,3.8,1,5.4-1,0,0,0,0,.2-.2,0,.2,0,.3,0,.5v7.1c0,2.2-2,3.5-3.6,3.4-.5,0-1-.3-1.5-.5-5.5-3.2-11-6.3-16.4-9.5-2.3-1.4-2.3-4.3,0-5.8.7-.5,1.4-.8,2.1-1.3.5-.3.5-.5,0-.9-.8-.5-1.5-.8-2.2-1.4-1-.7-1.7-1.8-1.5-3.1.2-1.1.8-2.1,1.8-2.7,3.4-1.9,6.8-3.9,10.1-5.9,2-1.1,4-2.2,5.9-3.4,2.9-1.9,5.7.7,5.5,3.2-.2,2.1,0,4.2,0,6.3-.1.4-.1.6-.1.9h0Z"/>
  <path class="st2" d="M73.3,46.7v5.4l-3.8-2.7,3.8-2.7h0Z"/>
</svg>