<?xml version="1.0" encoding="UTF-8"?>
<svg id="Layer_1" xmlns="http://www.w3.org/2000/svg" xmlns:xlink="http://www.w3.org/1999/xlink" version="1.1" viewBox="0 0 114.1 105.1">
  <!-- Generator: Adobe Illustrator 29.2.1, SVG Export Plug-In . SVG Version: 2.1.0 Build 116)  -->
  <defs>
    <style>
      .st0 {
        fill: #143140;
      }

      .st1 {
        fill: #2b617d;
      }
    </style>
  </defs>
  <path class="st1" d="M43.7,40.7l-14-23.2c-8.8,8.8-14.2,21-14.2,34.5s1.2,12.3,3.3,17.8h13.5c.5,0,1,0,1.5,0-.4-1.9-.6-3.9-.6-5.9,0-9.3,4.1-17.6,10.5-23.3Z"/>
  <path class="st0" d="M94.4,72.1c-3.4,12.5-14.4,21.9-27.7,22.8v-.8c0-.5,0-.9,0-1.4,11.8-.9,21.6-8.9,25.2-19.7l-7,2.8c-4.1,7-11.7,11.7-20.4,11.7h-1.1c0,0,0,0-.2,0,.9-7.5-.6-9-1.3-9.3.2-.7.2-1.4.2-2.1,0-5.1-4.2-9.3-9.3-9.3s-7.8,2.8-8.9,6.7c-.2.5-.3,1.1-.3,1.6v.6l-.6-.2c-1.3-1.5-3.2-2.6-5.3-2.8h-.8c0,0-2.4-.4-2.4-.4l-3.6-.5c-1,0-2-.2-3,0l-7.9.6-7.3.5-10.6.7c-.8,0-1.3.7-1.3,1.5.1.8.7,1.3,1.5,1.3h0l18.8-1.3,6.8-.5c.8,0,1.6,0,2.4,0l4.9.6,1.9.2c.2,0,.4,0,.6,0,2.5.6,4.4,2.9,4.4,5.6v5H11.2v-1.2c0-1.8,1.4-3.3,3.2-3.4l10.4-.6,6.7-.4,6.2-.4c.8,0,1.3-.7,1.3-1.5s-.7-1.3-1.5-1.3h-1.3c0,0-13.3.9-13.3.9l-8.8.5c-3.2.2-5.8,2.9-5.8,6.1v1.3H2.1c-.8,0-1.4.6-1.4,1.4s.6,1.4,1.4,1.4h56.5c1.6,0,3,.7,4,1.8.6.6,1,1.4,1.2,2.2,0,.4.2.9.2,1.3s0,.6,0,.9c-.4,2.5-2.6,4.5-5.3,4.5H2.1c-.8,0-1.4.6-1.4,1.4s.6,1.4,1.4,1.4h56.5c1.7,0,3.2-.5,4.5-1.4h1.2c19.9,0,37.1-11.9,44.7-29h-12.5c-.7,0-1.4,0-2.1.2ZM52.8,68.9c3.9,0,7.1,3.2,7.1,7.1s-3.2,7.1-7.1,7.1-2.1-.2-3-.6c-1.4-.7-2.6-1.8-3.3-3.2-.5-1-.8-2.1-.8-3.3v-.2c0-.6,0-1.1.2-1.6.8-3,3.6-5.3,6.9-5.3Z"/>
  <path class="st1" d="M64.4,3c-12.8,0-24.4,4.9-33.1,12.9l14.1,23.4c5.3-4.1,11.9-6.5,19-6.5s13.8,2.4,19,6.5l14.1-23.4c-8.7-8-20.4-12.9-33.1-12.9ZM54.5,23.3c-.9,0-1.7-.8-1.7-1.7s.8-1.7,1.7-1.7,1.7.8,1.7,1.7c-.1,1-.8,1.7-1.7,1.7ZM64.4,20.9c-.9,0-1.7-.8-1.7-1.7s.8-1.7,1.7-1.7,1.7.8,1.7,1.7-.8,1.7-1.7,1.7ZM74.3,23.3c-.9,0-1.7-.8-1.7-1.7s.8-1.7,1.7-1.7,1.7.8,1.7,1.7-.8,1.7-1.7,1.7Z"/>
  <path class="st1" d="M85.1,40.7c6.4,5.7,10.4,14,10.4,23.2s-.2,4-.6,5.9c.5,0,1,0,1.5,0h13.6c2.1-5.5,3.3-11.5,3.3-17.8,0-13.5-5.4-25.6-14.2-34.5l-14,23.3Z"/>
  <path class="st0" d="M92.1,70.5c.2,0,.3,0,.5-.2.5-2.1.7-4.2.7-6.5,0-8.6-3.7-16.3-9.7-21.6l-4.2,3.4c5.3,4.4,8.6,11,8.6,18.3s-.6,6.2-1.8,9l5.9-2.4Z"/>
  <path class="st0" d="M64.4,40.2c4.9,0,9.5,1.5,13.3,4.1l4.3-3.4c-4.9-3.7-11-5.9-17.6-5.9s-12.7,2.2-17.6,5.9l4.3,3.4c3.8-2.6,8.4-4.1,13.3-4.1Z"/>
  <path class="st0" d="M49.3,45.7l-4.2-3.4c-5.9,5.3-9.7,13-9.7,21.6s.3,4.4.7,6.5c.2,0,.3,0,.5.2l5.8,2.3c-1.1-2.8-1.8-5.8-1.8-9,.1-7.3,3.5-13.9,8.7-18.2Z"/>
</svg>