<?xml version="1.0" encoding="UTF-8"?>
<svg id="Layer_1" xmlns="http://www.w3.org/2000/svg" xmlns:xlink="http://www.w3.org/1999/xlink" version="1.1" viewBox="0 0 68.9 64.8">
  <!-- Generator: Adobe Illustrator 29.2.1, SVG Export Plug-In . SVG Version: 2.1.0 Build 116)  -->
  <defs>
    <style>
      .st0 {
        fill: #143140;
      }

      .st1 {
        fill: #2b617d;
      }
    </style>
  </defs>
  <path class="st1" d="M34.5,2.5c-14.1,0-25.5,2.7-25.5,6.2v12.3c0,3.4,11.4,6.2,25.5,6.2s25.5-2.8,25.5-6.2v-12.3c0-3.5-11.5-6.2-25.5-6.2Z"/>
  <path class="st1" d="M34.5,47.6c-12.2,0-22.4-2.1-24.9-4.9-.4.4-.6.9-.6,1.3v12.4c0,3.4,11.4,6.2,25.5,6.2s25.5-2.8,25.5-6.2v-12.4c0-.5-.2-.9-.6-1.3-2.5,2.8-12.7,4.9-24.9,4.9Z"/>
  <path class="st0" d="M34.5,30.1c-12.4,0-22.7-2.2-25-5-.4.4-.5.8-.5,1.2v12.4c0,3.4,11.4,6.2,25.5,6.2s25.5-2.8,25.5-6.2v-12.4c0-.4-.2-.8-.5-1.2-2.3,2.9-12.7,5-25,5Z"/>
</svg>