<?xml version="1.0" encoding="UTF-8"?>
<svg id="Layer_1" xmlns="http://www.w3.org/2000/svg" xmlns:xlink="http://www.w3.org/1999/xlink" version="1.1" viewBox="0 0 98.4 105.1">
  <!-- Generator: Adobe Illustrator 29.2.1, SVG Export Plug-In . SVG Version: 2.1.0 Build 116)  -->
  <defs>
    <style>
      .st0 {
        fill: #143140;
      }

      .st1 {
        fill: #2b617d;
      }
    </style>
  </defs>
  <path class="st1" d="M95.9,103.4h-44.4V1.9h44.4v101.5h0ZM73.8,11.5h-7.6c-2.9,0-5,2-5.1,4.7,0,2.6,2,4.8,4.9,4.8,5.2.1,10.5.1,15.7,0,2.8,0,4.9-2.2,4.8-4.8,0-2.7-2.1-4.6-5-4.6-2.6-.1-5.2-.1-7.7-.1h0ZM73.8,40c2.7,0,5.5,0,8.2,0,2.8,0,4.8-2.6,4.4-5.4-.4-2.5-2.3-4-5.1-4h-15c-.6,0-1.2.1-1.8.2-2.2.6-3.6,2.8-3.3,5,.3,2.4,2.1,4.2,4.5,4.2h8.1ZM73.8,84.5c-2.7,0-4.8,1.9-4.8,4.6s2.1,4.8,4.7,4.8,4.8-2.1,4.8-4.8-2-4.6-4.7-4.6Z"/>
  <path class="st0" d="M2.4,66.9V30.5h44.4v72.9H2.4s0-26.1,0-36.5ZM24.6,49.5h7.8c2.9,0,4.9-2,5-4.7,0-2.6-1.9-4.8-4.7-4.8-5.3,0-10.6,0-15.9,0-2.8,0-4.8,2.2-4.7,4.8.1,2.7,2.1,4.6,5,4.6,2.4.1,4.9.1,7.5.1h0ZM24.7,59h-7.7c-2.9,0-4.9,1.9-5,4.6-.1,2.6,1.9,4.8,4.8,4.9,5.3,0,10.5,0,15.8,0,2.8,0,4.9-2.3,4.8-4.9,0-2.7-2.2-4.6-5.1-4.6h-7.6ZM24.6,84.5c-2.7,0-4.7,2-4.8,4.6,0,2.6,2.1,4.8,4.7,4.8s4.8-2.1,4.8-4.8c.1-2.7-2-4.6-4.7-4.6h0Z"/>
</svg>