<?xml version="1.0" encoding="UTF-8"?>
<svg id="Layer_1" xmlns="http://www.w3.org/2000/svg" xmlns:xlink="http://www.w3.org/1999/xlink" version="1.1" viewBox="0 0 68.7 69.1">
  <!-- Generator: Adobe Illustrator 29.2.1, SVG Export Plug-In . SVG Version: 2.1.0 Build 116)  -->
  <defs>
    <style>
      .st0, .st1 {
        fill: #143140;
      }

      .st1 {
        opacity: .6;
      }

      .st1, .st2 {
        isolation: isolate;
      }

      .st2 {
        opacity: .3;
      }

      .st2, .st3 {
        fill: #2b617d;
      }
    </style>
  </defs>
  <g>
    <path class="st1" d="M6.9,39.5c-.6,0-1-.5-1-1V15.1c0-.5.4-1,1-1h55.6c.6,0,1,.5,1,1v23.4c0,.5-.4,1-1,1H6.9Z"/>
    <path class="st0" d="M6.9,39.5c-.6,0-1-.5-1-1V15.1c0-.5.4-1,1-1h55.6c.6,0,1,.5,1,1v23.4c0,.5-.4,1-1,1H6.9Z"/>
  </g>
  <g>
    <path class="st2" d="M42,56h-13.7c-.4,0-.6-.4-.4-.7h0c1.2-2.2,2.5-4.4,3.7-6.6.1-.2.3-.5.3-.8.2-.6-.1-1.2-.7-1.4-.3,0-.6,0-.9,0H6.8c-.5,0-.9-.4-.9-.9v-2.9c0-.5.4-1,1-1h55.7c.6,0,1,.5,1,1v2.8c0,.5-.4.8-.8.8h-23.5c-.3,0-.6,0-.9,0-.7.2-1,.7-.8,1.4,0,.3.2.5.3.8,1.2,2.2,2.5,4.4,3.7,6.7.2.3.3.5.4.8h0Z"/>
    <path class="st3" d="M42,56h-13.7c-.4,0-.6-.4-.4-.7h0c1.2-2.2,2.5-4.4,3.7-6.6.1-.2.3-.5.3-.8.2-.6-.1-1.2-.7-1.4-.3,0-.6,0-.9,0H6.8c-.5,0-.9-.4-.9-.9v-2.9c0-.5.4-1,1-1h55.7c.6,0,1,.5,1,1v2.8c0,.5-.4.8-.8.8h-23.5c-.3,0-.6,0-.9,0-.7.2-1,.7-.8,1.4,0,.3.2.5.3.8,1.2,2.2,2.5,4.4,3.7,6.7.2.3.3.5.4.8h0Z"/>
  </g>
</svg>