<?xml version="1.0" encoding="UTF-8"?>
<svg id="Layer_1" xmlns="http://www.w3.org/2000/svg" xmlns:xlink="http://www.w3.org/1999/xlink" version="1.1" viewBox="0 0 68.7 69.1">
  <!-- Generator: Adobe Illustrator 29.2.1, SVG Export Plug-In . SVG Version: 2.1.0 Build 116)  -->
  <defs>
    <style>
      .st0 {
        fill: #143140;
      }

      .st1 {
        fill: #0b6280;
        isolation: isolate;
        opacity: .6;
      }

      .st2 {
        fill: #2b617d;
      }
    </style>
  </defs>
  <g>
    <path class="st1" d="M25.8,53.9c-.4,0-.7-.4-.7-.7v-17.2c0-.4.3-.7.7-.7h40.6c.4,0,.7.4.7.7v17.1c0,.4-.3.7-.7.7H25.8Z"/>
    <path class="st0" d="M25.8,53.9c-.4,0-.7-.4-.7-.7v-17.2c0-.4.3-.7.7-.7h40.6c.4,0,.7.4.7.7v17.1c0,.4-.3.7-.7.7H25.8Z"/>
  </g>
  <path class="st2" d="M51.4,65.9h-10c-.3,0-.4-.3-.3-.5h0c.9-1.6,1.8-3.2,2.7-4.8,0,0,.2-.4.2-.6,0-.4,0-.9-.5-1-.2,0-.4,0-.7,0h-17.2c-.4,0-.7-.3-.7-.7v-2.1c0-.4.3-.7.7-.7h40.7c.4,0,.7.4.7.7v2c0,.4-.3.6-.6.6h-17.2c-.2,0-.4,0-.7,0-.5,0-.7.5-.6,1,0,.2,0,.4.2.6.9,1.6,1.8,3.2,2.7,4.9.5.3.6.4.6.6h0Z"/>
  <path class="st2" d="M66.5,23.6h-22.3v10.5h7.2c0-.2,0-.4-.3-.6-.9-1.7-1.8-3.3-2.7-4.9,0-.2,0-.4-.2-.6,0-.5,0-.9.6-1h17.9c.3,0,.6-.2.6-.6v-2c0-.4-.4-.8-.8-.8Z"/>
  <path class="st2" d="M24,39H1.9c-.4,0-.7.4-.7.7v2.1c0,.4.3.7.7.7h17.2c.2,0,.4,0,.7,0,.4,0,.7.6.5,1,0,.2-.1.4-.2.6-.9,1.6-1.8,3.2-2.7,4.8-.1.2,0,.5.3.5h6.3v-10.5Z"/>
  <path class="st0" d="M24,36c0-1,.8-1.7,1.7-1.7h17.5v-14.7c0-.4-.3-.7-.7-.7H1.9c-.4,0-.7.4-.7.7v17.1c0,.4.3.7.7.7h22.1v-1.4Z"/>
  <path class="st0" d="M66.4,3.5H25.8c-.4,0-.7.4-.7.7v13.6h17.5c1,0,1.7.8,1.7,1.7v2.5h22.2c.4,0,.7-.4.7-.7V4.3c0-.4-.4-.8-.8-.8Z"/>
</svg>