<?xml version="1.0" encoding="UTF-8"?>
<svg id="Layer_1" xmlns="http://www.w3.org/2000/svg" xmlns:xlink="http://www.w3.org/1999/xlink" version="1.1" viewBox="0 0 114.1 105.1">
  <!-- Generator: Adobe Illustrator 29.2.1, SVG Export Plug-In . SVG Version: 2.1.0 Build 116)  -->
  <defs>
    <style>
      .st0 {
        fill: #143140;
      }

      .st1 {
        fill: #2b617d;
      }
    </style>
  </defs>
  <rect class="st0" x="46.1" y="3.7" width="21.2" height="6.2"/>
  <rect class="st0" x="46.1" y="91.4" width="21.2" height="6.2"/>
  <path class="st1" d="M102.9,11.4H10.7c-5,0-9.1,4.1-9.1,9.1v60.5c0,5,4.1,9.1,9.1,9.1h92.2c5,0,9.1-4.1,9.1-9.1V20.5c0-5.1-4.1-9.1-9.1-9.1ZM56.8,13.1c1.3,0,2.4,1.1,2.4,2.4s-1.1,2.5-2.4,2.5-2.4-1.1-2.4-2.4,1-2.5,2.4-2.5ZM103.5,80.9c0,.3-.3.6-.6.6H10.7c-.3,0-.6-.3-.6-.6V20.5c0-.3.3-.6.6-.6h92.2c.3,0,.6.3.6.6,0,0,0,60.4,0,60.4Z"/>
  <path class="st0" d="M11.4,21.2v59.1h90.8V21.2H11.4ZM85.2,72.9c-.4,2.9-1.9,3.7-4.6,2.9-.3,0-.7-.2-1-.3-3.1-1.1-6.2-1.8-9.6-1.8-5,0-8.2-2.8-9-7.7-.8-4.8,0-9.6.8-14.7,2.7,3.3,4.6,6.5,5.3,10.4,0,.8.2,1.5-.5,2.2-.9.9-.8,2,.2,2.9.9.8,1.9.9,2.8,0,1-.8,1.1-1.8.5-2.9-.3-.4-.6-.9-.7-1.3-.6-2.1-1.2-4.3-1.8-6.4-.3-.9-.6-1.7-.8-2.3,1.7,1.2,3.3,2.5,5,3.7.6.4,1.3.8,1.9,1.3.9.7,1.8.9,2.7.2.9-.6,1.3-1.5.8-2.6s-1.4-1.5-2.5-1.3c-.5,0-1.1.4-1.5.3-2-.7-3.7-1.9-4.7-3.5,1.9.2,3.9.3,5.8.5.6,0,1.3,0,1.9.2,1.3.3,2.2,0,2.7-1.3.5-1.1,0-2.1-.9-2.7-1-.6-2-.4-2.8.5-.3.3-.6.9-.9.9-2.1.4-4.2.4-6-1.3,1.2-.5,2.3-1,3.5-1.3,1.3-.3,2-1.1,1.9-2.4,0-1.3-1-2-2.2-1.9-1.3,0-2,.9-2.1,2.3,0,.5-.4,1.1-.8,1.3-2.1,1-4.2.7-6-.6l-.4,5c-3.7-2.1-7.1-1.9-10.3,0l-.4-4.9c-1.8,1.3-3.8,1.5-5.9.5-.4-.2-.8-.8-.8-1.3-.2-1.3-.8-2.2-2.1-2.3-1.2,0-2.1.6-2.2,1.9,0,1.3.6,2.1,1.9,2.4,1.2.3,2.3.8,3.5,1.3-1.8,1.7-3.9,1.7-6,1.3-.4,0-.6-.6-.9-.9-.8-.9-1.7-1.2-2.8-.5-1,.6-1.4,1.6-.9,2.7.5,1.1,1.4,1.6,2.7,1.3.6,0,1.3,0,1.9-.2,2-.2,3.9-.3,5.8-.5-1,1.6-2.6,2.8-4.7,3.5-.4,0-1-.2-1.5-.3-1.2-.2-2.1.2-2.5,1.3-.5,1.1,0,2,.8,2.6.9.6,1.8.5,2.7-.2.6-.5,1.3-.9,1.9-1.3,1.7-1.2,3.4-2.5,5-3.7-.2.6-.5,1.5-.8,2.3-.6,2.1-1.2,4.3-1.8,6.4,0,.5-.5.9-.7,1.3-.7,1.1-.5,2.1.5,2.9.9.8,2,.7,2.8,0,.9-.9,1.1-2.1.2-2.9-.8-.7-.7-1.4-.5-2.2.7-3.9,2.6-7.1,5.3-10.4.7,5.1,1.6,9.9.8,14.7-.8,4.9-4,7.8-9,7.7-3.4,0-6.5.7-9.6,1.8-.3,0-.7.2-1,.3-2.8.8-4.2,0-4.6-2.9-.3-2.1-.4-4.4-.3-6.5.4-9.1,1.6-18.1,6.1-26.2,1.4-2.5,3.3-4.8,5.4-6.8,2.2-2.1,5.1-2.9,8.2-2.4,1.6.3,2.7,1.2,2.9,2.8.2,1.4.3,2.8.3,4.2v6.7c0,.5.2,1,.3,1.5l1.4-.7c.6-.3.9-.9.9-1.5v-17.1c0-.9.7-1.6,1.6-1.6h3c.9,0,1.6.7,1.6,1.6v17.1c0,.6.3,1.2.9,1.5l1.5.8c0-.5.3-1,.4-1.5v-6.7c0-1.4,0-2.8.3-4.2.3-1.6,1.3-2.5,2.9-2.8,3.1-.5,6,.3,8.2,2.4,2.1,2,4,4.3,5.4,6.8,4.5,8.1,5.7,17.1,6.1,26.2-.4,2-.6,4.2-.9,6.4Z"/>
</svg>