<?xml version="1.0" encoding="UTF-8"?>
<svg id="Layer_1" xmlns="http://www.w3.org/2000/svg" xmlns:xlink="http://www.w3.org/1999/xlink" version="1.1" viewBox="0 0 68.7 69.1">
  <!-- Generator: Adobe Illustrator 29.2.1, SVG Export Plug-In . SVG Version: 2.1.0 Build 116)  -->
  <defs>
    <style>
      .st0 {
        fill: #143140;
      }

      .st1 {
        isolation: isolate;
        opacity: .3;
      }

      .st1, .st2 {
        fill: #2b617d;
      }
    </style>
  </defs>
  <g>
    <path class="st1" d="M42.7,63.5h-15c-.4,0-.7-.4-.4-.8h0c1.3-2.4,2.7-4.8,4.1-7.2.1-.2.3-.5.3-.9.2-.7-.1-1.3-.8-1.5-.3,0-.7,0-1,0H4.1c-.5,0-1-.4-1-1v-3.2c0-.5.4-1.1,1.1-1.1h61c.7,0,1.1.5,1.1,1.1v3.1c0,.5-.4.9-.9.9h-25.8c-.3,0-.7,0-1,0-.8.2-1.1.8-.9,1.5,0,.3.2.5.3.9,1.3,2.4,2.7,4.8,4.1,7.3.4.3.5.6.6.9h0Z"/>
    <path class="st2" d="M42.7,63.5h-15c-.4,0-.7-.4-.4-.8h0c1.3-2.4,2.7-4.8,4.1-7.2.1-.2.3-.5.3-.9.2-.7-.1-1.3-.8-1.5-.3,0-.7,0-1,0H4.1c-.5,0-1-.4-1-1v-3.2c0-.5.4-1.1,1.1-1.1h61c.7,0,1.1.5,1.1,1.1v3.1c0,.5-.4.9-.9.9h-25.8c-.3,0-.7,0-1,0-.8.2-1.1.8-.9,1.5,0,.3.2.5.3.9,1.3,2.4,2.7,4.8,4.1,7.3.4.3.5.6.6.9h0Z"/>
  </g>
  <g>
    <path class="st0" d="M39.5,32.5c-.3-.5-.6-1.3-.7-2,0-.1,0-.2,0-.2h-.2c-2.2,1.3-5.1,1.3-7.3,0h-.2c-.1,0-.1.1-.1.2-.1.6-.3,1.4-.7,2.2v.3l3.7,4.5v4.1c0,0,0,.2.2.2h1.4c0,0,.2,0,.2-.2v-4l3.9-4.5c0,0,0-.2,0-.3,0,0-.1,0-.1-.3Z"/>
    <path class="st0" d="M65.2,6.6H4.2c-.7,0-1.1.5-1.1,1.1v36.6c0,.5.4,1.1,1.1,1.1h60.9c.7,0,1.1-.5,1.1-1.1V7.7c.1-.5-.4-1.1-1-1.1ZM38.7,12.2c2.1,1.1,3.7,3.2,4,5.4h.6c.2,0,.3.1.3.3v1.4c-.5-.2-.9-.2-1.2-.3-.8-.1-1.8-.2-3.1-.3-.8-2.6-.7-5.3-.6-6.5ZM32.3,11.5c0-.4.3-.7.7-.7h3.4c.4,0,.7.3.7.7,0,1-.4,4,.5,7-1.2,0-2.2-.1-2.9-.1s-1.7,0-2.9.1c.9-2.9.6-5.9.5-7ZM25.9,17.8c0-.2.1-.3.3-.3h.6c.4-2.2,1.8-4.3,4-5.4.1,1.3.2,4-.6,6.4-1.3.1-2.4.2-3.2.3-.3,0-.7.1-1.1.3,0,0,0-1.3,0-1.3ZM48.8,43.4h-5.2l.3-7.9s-.3-.3-.9-.6c-.5-.3-1.1-.5-1.1-.5l-.3,9h-13.7l-.3-9s-.6.3-1.1.5c-.6.3-.9.6-.9.6l.3,7.9h-5.2v-1.8c0-4.6,3.1-8.2,8.2-9.7.3-.6.6-1.5.5-2.8-1.1-1.2-2.3-3.3-2-5.9-1.3-.4-1.8-1-1.8-1.7,0-1.4,2.4-1.8,9.2-1.8s9.2.4,9.2,1.8-.4,1.3-1.8,1.7c.3,2.7-.9,4.6-2,5.8,0,1.3.2,2.3.5,2.8,5.2,1.6,8.2,5.2,8.2,9.7v1.9h-.1Z"/>
    <path class="st0" d="M34.8,30c3.3,0,6.1-2.7,6.1-6.1s-2.4-2.6-6.1-2.6-6.1.8-6.1,2.6c0,3.4,2.7,6.1,6.1,6.1Z"/>
  </g>
</svg>