<?xml version="1.0" encoding="UTF-8"?>
<svg id="Layer_1" xmlns="http://www.w3.org/2000/svg" xmlns:xlink="http://www.w3.org/1999/xlink" version="1.1" viewBox="0 0 87.1 77.8">
  <!-- Generator: Adobe Illustrator 29.2.1, SVG Export Plug-In . SVG Version: 2.1.0 Build 116)  -->
  <defs>
    <style>
      .st0 {
        fill: none;
      }

      .st1 {
        fill: #143140;
      }

      .st2 {
        fill: #2b617d;
      }

      .st3 {
        clip-path: url(#clippath);
      }
    </style>
    <clipPath id="clippath">
      <rect class="st0" x="1.1" y="1.8" width="84" height="74"/>
    </clipPath>
  </defs>
  <g class="st3">
    <g>
      <path class="st1" d="M28.7,20c.2,2.9,1.4,5.3,3.7,7,1.5,1.1,3.2,1.7,5.2,1.6v-2.2c0-3.5,0-7,.9-10.4,1.3-5,3.7-9.4,7.1-13.2.2-.3.5-.6.8-1.1.2,1.4.3,2.5.5,3.5.7,3.4,2.4,6.3,4.8,8.8,2.1,2.1,4.3,4.1,6.3,6.4,4.2,4.8,5.2,10.4,3.4,16.5,0,.4-.3.7-.9.7H24.7c-2.3-5.8-.5-13.8,4-17.6h0Z"/>
      <path class="st2" d="M27.1,43.8H1.1v14.5h26v-14.5Z"/>
      <path class="st2" d="M12.5,61.3H1.1v14.5h11.4v-14.5Z"/>
      <path class="st2" d="M85.1,61.3h-11.6v14.5h11.6v-14.5Z"/>
      <path class="st2" d="M56.1,43.8h-26v14.5h26v-14.5Z"/>
      <path class="st2" d="M41.5,61.3H15.5v14.5h26v-14.5Z"/>
      <path class="st2" d="M85.1,43.8h-26v14.5h26v-14.5Z"/>
      <path class="st2" d="M70.5,61.3h-26v14.5h26v-14.5Z"/>
    </g>
  </g>
</svg>