<?xml version="1.0" encoding="UTF-8"?>
<svg id="Layer_1" xmlns="http://www.w3.org/2000/svg" xmlns:xlink="http://www.w3.org/1999/xlink" version="1.1" viewBox="0 0 100.6 62.5">
  <!-- Generator: Adobe Illustrator 29.2.1, SVG Export Plug-In . SVG Version: 2.1.0 Build 116)  -->
  <defs>
    <style>
      .st0 {
        fill: none;
      }

      .st1 {
        fill: #4285f4;
      }

      .st2 {
        fill: #fbbc05;
      }

      .st3 {
        fill: #fff;
        stroke: #143140;
        stroke-width: 4px;
      }

      .st4 {
        fill: #34a853;
      }

      .st5 {
        fill: #ea4335;
      }

      .st6 {
        clip-path: url(#clippath);
      }
    </style>
    <clipPath id="clippath">
      <rect class="st0" x="36.1" y="25.1" width="30" height="24"/>
    </clipPath>
  </defs>
  <path class="st3" d="M52.9,4.3c-9.3-.2-17.9,5.8-20.9,15h0c-.3,1-.9,2.1-2,2.8-1.1.6-2.3.6-3.2.5-5.1-.5-9.3,1.2-12.2,4s-4.5,7-4.1,12c.1.9,0,1.9-.7,2.7-.5.7-1.3,1.1-1.8,1.3-4.4,2.2-6,6.9-4,10.9h0c.9,1.8,2.1,2.9,3.5,3.6,1.4.7,3.2,1.1,5.3,1.1h68.9c2.9,0,5.5-.7,8-2.2,5.6-3.3,8.6-9.3,7.6-15.3-1-6.2-5.7-10.9-12.3-12h0c-1.2-.2-2.5-.2-3.9-.1-.5,0-1,.1-1.5.1-.9.1-1.9.2-2.8.2h-2.1c0,.1,0-2.1,0-2.1,0-1,0-1.3-.2-2.1-.2-1.7-.4-3.3-.8-4.9-2.7-9.2-10.8-15.3-20.7-15.5"/>
  <g class="st6">
    <g>
      <path class="st5" d="M55.1,31.7h0l3.6-3.6h0c-3-2.8-7.2-3.7-11.1-2.5-3.9,1.2-6.9,4.2-7.9,8.1q0,0,.2,0c1.3-.9,2.9-1.4,4.6-1.4s1.1,0,1.7.2h0c2.2-2.6,6.1-2.9,8.8-.7h0Z"/>
      <path class="st1" d="M62.3,33.7c-.6-2.2-1.8-4.2-3.5-5.7l-3.7,3.6c1.5,1.3,2.4,3.1,2.4,5.1v.6c4.3,0,4.3,6.5,0,6.5h-6.5v5.1h6.5c3.7,0,7-2.4,8.2-5.9,1.1-3.4-.3-7.2-3.4-9.3Z"/>
      <path class="st4" d="M44.5,49.1h6.5v-5.2h-6.5c-.5,0-.9,0-1.3-.3l-3.8,3.7h0c1.4,1.2,3.2,1.8,5.1,1.8h0Z"/>
      <path class="st2" d="M44.5,32.2c-3.6,0-6.8,2.3-8,5.7s0,7.2,2.9,9.4l3.8-3.8c-2.1-.9-2.6-3.6-1-5.2s4.3-1.1,5.3,1l3.8-3.8c-1.7-2-4.2-3.3-6.8-3.3h0Z"/>
    </g>
  </g>
</svg>