<?xml version="1.0" encoding="UTF-8"?>
<svg id="Layer_1" xmlns="http://www.w3.org/2000/svg" xmlns:xlink="http://www.w3.org/1999/xlink" version="1.1" viewBox="0 0 75.8 64.8">
  <!-- Generator: Adobe Illustrator 29.2.1, SVG Export Plug-In . SVG Version: 2.1.0 Build 116)  -->
  <defs>
    <style>
      .st0 {
        fill: none;
      }

      .st1 {
        fill: #143140;
      }

      .st2 {
        fill: #fff;
      }

      .st3 {
        fill: #2b617d;
      }

      .st4 {
        clip-path: url(#clippath);
      }
    </style>
    <clipPath id="clippath">
      <rect class="st0" x="1.7" y="1.5" width="72.3" height="61.4"/>
    </clipPath>
  </defs>
  <g class="st4">
    <g>
      <path class="st3" d="M1.7,62.8h20.4V14.5H1.7v48.3Z"/>
      <path class="st1" d="M22.1,62.9h31.5V1.5h-31.5v61.4Z"/>
      <path class="st3" d="M53.6,62.8h20.4V27.5h-20.4v35.3Z"/>
      <path class="st2" d="M65.3,42h5.4v-8.1h-5.4v8.1Z"/>
      <path class="st2" d="M56.9,42h5.4v-8.1h-5.4v8.1Z"/>
      <path class="st2" d="M65.3,55h5.4v-8h-5.4v8Z"/>
      <path class="st2" d="M56.9,55h5.4v-8h-5.4v8Z"/>
      <path class="st3" d="M43.5,42h5.4v-8.1h-5.4v8.1Z"/>
      <path class="st3" d="M35.1,42h5.4v-8.1h-5.4v8.1Z"/>
      <path class="st3" d="M43.5,55h5.4v-8h-5.4v8Z"/>
      <path class="st3" d="M35.1,55h5.4v-8h-5.4v8Z"/>
      <path class="st3" d="M26.7,42h5.4v-8.1h-5.4s0,8.1,0,8.1Z"/>
      <path class="st3" d="M26.7,55h5.4v-8h-5.4s0,8,0,8Z"/>
      <path class="st2" d="M35.7,22.2h4.3V7.6h-4.3v14.6Z"/>
      <path class="st2" d="M45.1,17.1v-4.3h-14.5v4.3h14.5Z"/>
      <path class="st2" d="M13.4,42h5.4v-8.1h-5.4v8.1Z"/>
      <path class="st2" d="M5,42h5.4v-8.1h-5.4v8.1Z"/>
      <path class="st2" d="M13.4,55h5.4v-8h-5.4v8Z"/>
      <path class="st2" d="M5,55h5.4v-8h-5.4v8Z"/>
      <path class="st2" d="M13.4,29h5.4v-8.1h-5.4v8.1Z"/>
      <path class="st2" d="M5,29h5.4v-8.1h-5.4v8.1Z"/>
    </g>
  </g>
</svg>