<?xml version="1.0" encoding="UTF-8"?>
<svg id="Layer_1" xmlns="http://www.w3.org/2000/svg" xmlns:xlink="http://www.w3.org/1999/xlink" version="1.1" viewBox="0 0 68.7 69.1">
  <!-- Generator: Adobe Illustrator 29.2.1, SVG Export Plug-In . SVG Version: 2.1.0 Build 116)  -->
  <defs>
    <style>
      .st0 {
        fill: #143140;
      }

      .st1 {
        fill: #2b617d;
      }
    </style>
  </defs>
  <path class="st1" d="M22.5,32c-1.4,0-2.6,1.2-2.6,2.6s1.2,2.6,2.6,2.6,2.6-1.2,2.6-2.6-1.1-2.6-2.6-2.6Z"/>
  <path class="st1" d="M19.1,35.5c-.6.4-1.3.5-2.1.3-1.8-.4-3.4-2.5-4.1-4.2-.1-.1-.1-.2-.1-.2-.1,0-.3.1-.7.7-.9,1.5-1.7,4.8.2,8.1,1.5,2.7,3.7,4.5,5.8,5,.9.2,1.7,0,2.1-.2,1.4-1,2.8-3.6,3-6.8-.2,0-.5,0-.7,0-1.6,0-3-1.2-3.4-2.8ZM16.9,43.5c2.3,0,3.7-.8,4.6-1.7-1.1,2.3-2.3,2.9-4.6,1.7Z"/>
  <path class="st1" d="M25.2,32.3c.5.6.9,1.4.9,2.3s-.4,1.9-1.1,2.5c.7.4,1.1.9,1.3,1.6.5,1.8-.4,4.2-1.6,5.7-.1,0-.1.2-.1.2,0,0,.2.2.9.3,1.7,0,5-1,6.9-4.2,1.5-2.7,2.1-5.5,1.4-7.5-.3-.9-.7-1.5-1.3-1.7-1.4-.7-4.4-.7-7.3.8ZM33.1,35.8c-1.2-2-2.6-2.8-3.8-3.2,2.5-.2,3.6.6,3.8,3.2Z"/>
  <path class="st1" d="M19.2,33.5c.5-1.4,1.8-2.4,3.4-2.4s.6,0,.9.1c0-.7.2-1.4.8-2,1.3-1.4,3.8-1.7,5.7-1.5h.2s.1-.3-.2-.9c-.8-1.5-3.3-3.8-7.1-3.8s-5.8.9-7.2,2.5c-.6.7-.9,1.4-.9,2,0,1.7,1.7,4.3,4.4,6ZM17.7,25.3c-1.1,2-1.1,3.6-.8,4.9-1.5-2.1-1.4-3.5.8-4.9Z"/>
  <path class="st1" d="M22.5,19.9c-8.1,0-14.7,6.6-14.7,14.7s6.6,14.7,14.7,14.7,14.7-6.6,14.7-14.7-6.6-14.7-14.7-14.7ZM22.5,47.9c-7.4,0-13.4-6-13.4-13.4s6-13.4,13.4-13.4,13.4,6,13.4,13.4-6,13.4-13.4,13.4Z"/>
  <path class="st0" d="M64.8,14.1H3.8c-1.3,0-2.3,1-2.3,2.3v38.3c0,1.3,1,2.3,2.3,2.3h61c1.3,0,2.3-1,2.3-2.3V16.4c0-1.3-1-2.3-2.3-2.3ZM22.5,51.2c-9.2,0-16.7-7.5-16.7-16.7s7.5-16.7,16.7-16.7,16.7,7.5,16.7,16.7-7.5,16.7-16.7,16.7ZM48.1,50.8c-3.6,0-6.6-2.9-6.6-6.6s1-4.1,2.7-5.3l.5-.4v-15.8c0-1.8,1.5-3.4,3.4-3.4s3.4,1.5,3.4,3.4v15.9l.5.4c1.7,1.2,2.7,3.2,2.7,5.3-.1,3.6-3,6.5-6.6,6.5ZM57.5,35.9h-3.7c-.3,0-.6-.2-.6-.6s.2-.6.6-.6h3.7c.3,0,.6.2.6.6s-.3.6-.6.6ZM53.2,32.3c0-.3.2-.6.6-.6h2.2c.3,0,.6.2.6.6s-.2.6-.6.6h-2.3c-.2,0-.5-.3-.5-.6ZM57.5,29.8h-3.7c-.3,0-.6-.2-.6-.6s.2-.6.6-.6h3.7c.3,0,.6.2.6.6s-.3.6-.6.6ZM53.2,26.1c0-.3.2-.6.6-.6h2.2c.3,0,.6.2.6.6s-.2.6-.6.6h-2.3c-.2,0-.5-.3-.5-.6ZM57.5,23.6h-3.7c-.3,0-.6-.2-.6-.6s.2-.6.6-.6h3.7c.3,0,.6.2.6.6s-.3.6-.6.6Z"/>
  <path class="st1" d="M49.6,40.4h-.4v-17.7c0-.6-.5-1.2-1.2-1.2s-1.2.5-1.2,1.2v17.6l-.4.2c-1.6.6-3,2.4-2.5,4.8.4,1.5,1.6,2.7,3.1,3.1.3,0,.7,0,1,0,.9,0,1.8-.3,2.6-.9,1-.8,1.6-2,1.6-3.3,0-1.7-1-3.2-2.6-3.9ZM48.6,28.4h-1.1v-5.7c0-.3.3-.6.6-.6s.6.3.6.6v5.7h0Z"/>
</svg>