<?xml version="1.0" encoding="UTF-8"?>
<svg id="Layer_1" xmlns="http://www.w3.org/2000/svg" xmlns:xlink="http://www.w3.org/1999/xlink" version="1.1" viewBox="0 0 84.3 88.5">
  <!-- Generator: Adobe Illustrator 29.2.1, SVG Export Plug-In . SVG Version: 2.1.0 Build 116)  -->
  <defs>
    <style>
      .st0 {
        fill: none;
      }

      .st1 {
        fill: #143140;
      }

      .st2 {
        fill: #fff;
      }

      .st3 {
        fill: #2b617d;
      }

      .st4 {
        clip-path: url(#clippath);
      }
    </style>
    <clipPath id="clippath">
      <rect class="st0" x=".7" y="1.2" width="82" height="86"/>
    </clipPath>
  </defs>
  <g class="st4">
    <g>
      <path class="st1" d="M46.9,66.5v-8.4c0-2.9,1.7-4.6,4.6-4.7,2.7,0,5.2-.5,7.5-1.3.6-.2,1.1-.4,1.6-.7-2.4-3-5.3-5.7-9-7.9-11.8-7.1-23.9-7-35.5.3C6.3,50.1,1.5,59.4.7,71h46.2v-4.5h0Z"/>
      <path class="st3" d="M33.9,33.8c9.1,0,16.3-7.2,16.4-16.3,0-8.9-7.6-16.5-16.2-16.3-8.6-.2-16.3,7.4-16.2,16.2.1,8.9,7.3,16.4,16,16.4h0Z"/>
      <path class="st1" d="M82.6,66.8v-9.2c0-.2,0-.3-.2-.4,0,0-.2,0-.4-.2,0,0-.3,0-.5,0-.4,0-.7,0-1.1,0-1.2,0-2.3-.2-3.5-.3-3.7-.6-7.1-1.9-9.9-4.4,0,0-.2-.2-.3-.2h-.3c0,0-.2,0-.3,0h0s0,0-.3,0c-1,.9-2.1,1.6-3.3,2.2-.8.4-1.6.8-2.4,1.1-2.4.9-5,1.4-7.5,1.5h-1.7c0,0-.2,0-.2,0,0,0,0,0-.2,0-.2.2-.2.5-.2,1v12.8c0,.8,0,1.5.3,2.2,0,.4.2.8.3,1.2,0,.3.2.7.3,1,.2.5.4,1,.7,1.5.2.4.4.7.6,1,0,0,0,.2.2.4.3.5.6.9,1,1.3.5.7,1.1,1.3,1.6,1.9.3.3.6.6.9.9.3.2.5.4.8.7,2,1.6,4.2,2.7,6.7,3.6.7.2,1.3.4,2,.6,0,0,.2,0,.3,0h.8c.4,0,.7-.2,1.1-.3.7-.2,1.4-.4,2-.6,1.5-.5,2.9-1.2,4.2-2.1,1.3-.8,2.6-1.9,3.7-3,1.6-1.7,2.9-3.5,3.7-5.5,0-.3.2-.6.3-.9,0-.2,0-.3,0-.5.4-1.4.6-3,.6-4.6.1-1.1.1-2,.1-3h0Z"/>
      <path class="st2" d="M58.4,69l5.6,4.4c3.5-3.5,6.9-6.9,10.3-10.4l2.8,2.8-12.9,13c-2.8-2.2-5.6-4.4-8.4-6.7l2.6-3.1Z"/>
    </g>
  </g>
</svg>