<?xml version="1.0" encoding="UTF-8"?>
<svg id="Layer_1" xmlns="http://www.w3.org/2000/svg" xmlns:xlink="http://www.w3.org/1999/xlink" version="1.1" viewBox="0 0 73.9 73.8">
  <!-- Generator: Adobe Illustrator 29.2.1, SVG Export Plug-In . SVG Version: 2.1.0 Build 116)  -->
  <defs>
    <style>
      .st0 {
        fill: #143140;
      }

      .st1 {
        fill: #2b617d;
      }
    </style>
  </defs>
  <path class="st0" d="M1.2,38h16c.2,5.2.6,10.3,1.9,15.4-.8.2-1.7.3-2.5.5-3.1.7-6.3,1.4-9.4,2.1-.3,0-.8,0-.9-.2-3.3-5.3-5.1-11.1-5.3-17.4.2-.2.2-.3.2-.4h0Z"/>
  <path class="st1" d="M72.6,35.9h-16c0-5.2-.6-10.3-1.9-15.4,1.7-.3,3.3-.6,4.9-1,2.3-.5,4.6-1.1,6.9-1.6.3-.1.8,0,.9.2,3.3,5.3,5.1,11.1,5.3,17.4-.1,0-.1.2-.1.4h0Z"/>
  <path class="st0" d="M19.3,20.7c-1.3,5-1.8,10.1-1.9,15.2H1.2c.1-1.1.1-2.1.2-3.1.6-5.1,2.2-9.8,4.8-14.1.3-.7.6-.7,1.2-.6,3.7.8,7.5,1.6,11.2,2.4.2,0,.4.1.7.2h0Z"/>
  <path class="st1" d="M56.6,37.9h16.2c-.2,1.5-.2,3-.5,4.4-.7,4.6-2.3,8.9-4.6,12.9-.3.4-.5.5-1,.4-3.8-.8-7.7-1.7-11.5-2.5,0,0-.3,0-.5,0,1.2-4.9,1.7-9.9,1.9-15.1h0Z"/>
  <path class="st1" d="M54.6,35.9h-16.6v-13.8c4.8-.4,9.7-.7,14.7-1.1,1.2,4.8,1.9,9.8,1.9,14.9h0Z"/>
  <path class="st1" d="M35.8,51.7c-4.9.4-9.7.8-14.7,1.2-1.2-4.8-1.8-9.8-1.9-14.9h16.5v13.7h.1Z"/>
  <path class="st1" d="M52.7,52.7c-5-.4-9.8-.7-14.7-1.1v-13.6h16.6c0,5-.8,9.9-1.9,14.7h0Z"/>
  <path class="st1" d="M19.3,35.8c.1-5,.7-9.9,1.9-14.7,4.9.3,9.8.7,14.7,1v13.7h-16.6Z"/>
  <path class="st1" d="M21.5,19c.9-2.3,1.7-4.5,2.7-6.6,1.5-3.2,3.3-6.1,6-8.5,1.3-1.1,2.8-2,4.5-2.5.3-.1.7-.1,1.1-.2v18.8c-4.7.1-9.3-.3-14.3-1Z"/>
  <path class="st1" d="M38,72.5v-18.6c4.8,0,9.5.3,14.2,1-1.9,5.6-4.1,11-8.6,15-1.6,1.4-3.4,2.4-5.6,2.6h0Z"/>
  <path class="st1" d="M21.7,54.7l14.1-1.1v18.9c-1.7,0-3.2-.8-4.5-1.8-2.1-1.5-3.8-3.5-5.1-5.7-2-3.1-3.4-6.5-4.5-10.3Z"/>
  <path class="st1" d="M38,1.3c1.7.1,3.1.8,4.5,1.8,2.2,1.5,3.8,3.5,5.2,5.7,1.7,2.7,3.9,7.7,4.4,10.2-4.6.7-9.3,1-14,1.1V1.3h-.1Z"/>
  <path class="st0" d="M7.7,16.4c5.5-7.6,12.6-12.3,21.5-14.3-5,4.5-7.6,10.4-9.6,16.8-3.9-.8-7.8-1.7-11.9-2.5h0Z"/>
  <path class="st1" d="M66.2,57.4c-5.6,7.6-12.7,12.4-21.6,14.4,5.1-4.5,7.6-10.4,9.6-16.8,4,.7,7.9,1.6,12,2.4Z"/>
  <path class="st1" d="M54.1,18.8c-2-6.4-4.5-12.2-9.6-16.6,5.9,0,18.6,8.4,21.3,14-3.9.8-7.7,1.7-11.7,2.6h0Z"/>
  <path class="st0" d="M29.2,71.7c-8.8-2-15.8-6.7-21.4-14,4.1-.9,7.9-1.8,11.9-2.6,2,6.3,4.5,12.2,9.5,16.6h0Z"/>
</svg>