<?xml version="1.0" encoding="UTF-8"?>
<svg id="Layer_1" xmlns="http://www.w3.org/2000/svg" xmlns:xlink="http://www.w3.org/1999/xlink" version="1.1" viewBox="0 0 68.7 69.1">
  <!-- Generator: Adobe Illustrator 29.2.1, SVG Export Plug-In . SVG Version: 2.1.0 Build 116)  -->
  <defs>
    <style>
      .st0 {
        fill: #053242;
      }

      .st1 {
        fill: #096380;
      }
    </style>
  </defs>
  <path class="st1" d="M12.1,6.6c-2.3,1.7-4.4,4.1-6.2,7.1C2.7,19.1.8,26.1.5,33.6h0v4.6h0c.4,7.5,2.2,14.5,5.4,19.9,1.8,3.1,3.9,5.5,6.2,7.1.5.5,1.2.8,1.9.8h4.2c1.5,0,2.7-1.2,2.7-2.7v-10.6c0-1.5-1.2-2.7-2.7-2.7h-4c-.8,0-1.1,0-1.2-.3-.1,0-.1-.2-.2-.3-6.2-7.5-5.1-21.9,0-27.2.1-.1.1-.2.2-.3.2-.2.4-.3,1.2-.3h4c1.5,0,2.7-1.2,2.7-2.7v-10.5c0-1.5-1.2-2.7-2.7-2.7h-4.2c-.8.1-1.4.4-1.9.9Z"/>
  <path class="st0" d="M57.4,5.8H23.5c.4.8.6,1.7.6,2.6v10.7c0,3.2-2.6,5.9-5.9,5.9h-3.5c-3.4,4.2-4.5,15.5.1,21.8h3.4c3.2,0,5.9,2.6,5.9,5.9v10.7c0,1-.3,1.9-.7,2.8h34c5.4,0,9.8-4.4,9.8-9.8V15.6c0-5.4-4.4-9.8-9.8-9.8ZM37,56.6h-6.4v-6.1h6.4v6.1ZM37,46.9h-6.4v-6.1h6.4v6.1ZM37,37.2h-6.4v-6.1h6.4v6.1ZM46.7,56.6h-6.4v-6.1h6.4v6.1ZM46.7,46.9h-6.4v-6.1h6.4v6.1ZM46.7,37.2h-6.4v-6.1h6.4v6.1ZM56.4,56.6h-6.4v-6.1h6.4v6.1ZM56.4,46.9h-6.4v-6.1h6.4v6.1ZM56.4,37.2h-6.4v-6.1h6.4v6.1ZM56.7,27h-26v-11.9h26v11.9Z"/>
</svg>