<?xml version="1.0" encoding="UTF-8"?>
<svg id="Layer_1" xmlns="http://www.w3.org/2000/svg" xmlns:xlink="http://www.w3.org/1999/xlink" version="1.1" viewBox="0 0 87.1 105.1">
  <!-- Generator: Adobe Illustrator 29.2.1, SVG Export Plug-In . SVG Version: 2.1.0 Build 116)  -->
  <defs>
    <style>
      .st0 {
        fill: none;
      }

      .st1 {
        fill: #053242;
      }

      .st2 {
        fill: #096380;
      }

      .st3 {
        clip-path: url(#clippath);
      }
    </style>
    <clipPath id="clippath">
      <rect class="st0" x="2.2" y="1.9" width="83.8" height="101.3"/>
    </clipPath>
  </defs>
  <g class="st3">
    <g>
      <path class="st2" d="M49.7,36.2c1.5.9,3,1.8,4.5,2.6.4.2.9.3,1.3.2,3.7-.4,6.8.8,9.9,2.7,6.5,4.1,13.1,7.8,19.7,11.7.3.2.6.4.8.5-2.2,3.7-4.3,7.3-6.5,11-.2,0-.5-.2-.7-.4-7.9-4.6-15.8-9.3-23.6-13.9-.5-.3-.9-.8-1.2-1.3-.3-.4-.6-.8-.8-1.3-1.2-3.2-4-4.7-6.8-6.1-8.7,11-24.1,12.1-34.2,4.5C1.9,38.7-.8,24.8,5.6,14,12.1,3.1,25.6-1.1,37.1,4.1c11.6,5.2,18,19.1,12.6,32.1h0ZM31.7,44.9c10.2-2.7,16.2-13,13.5-23.1s-13-16.2-23.1-13.5c-10.1,2.6-16.2,13-13.5,23.1,2.6,10.1,13,16.2,23.1,13.5h0Z"/>
      <path class="st1" d="M60,103.2h25.4v-14.1h-25.4v14.1Z"/>
      <path class="st1" d="M74.2,86.2h11.2v-14.1h-11.2v14.1Z"/>
      <path class="st1" d="M3.4,86.2h11.3v-14.1H3.4v14.1Z"/>
      <path class="st1" d="M31.7,103.2h25.4v-14.1h-25.4v14.1Z"/>
      <path class="st1" d="M45.9,86.2h25.4v-14.1h-25.4v14.1Z"/>
      <path class="st1" d="M3.4,103.2h25.4v-14.1H3.4v14.1Z"/>
      <path class="st1" d="M17.6,86.2h25.4v-14.1h-25.4v14.1Z"/>
    </g>
  </g>
</svg>