<?xml version="1.0" encoding="UTF-8"?>
<svg id="Layer_1" xmlns="http://www.w3.org/2000/svg" xmlns:xlink="http://www.w3.org/1999/xlink" version="1.1" viewBox="0 0 68.7 69.1">
  <!-- Generator: Adobe Illustrator 29.2.1, SVG Export Plug-In . SVG Version: 2.1.0 Build 116)  -->
  <defs>
    <style>
      .st0 {
        fill: #053242;
      }

      .st1 {
        fill: #096380;
      }
    </style>
  </defs>
  <path class="st1" d="M10,3.9c-.3-.4-.9-.1-.9.3v53c0,.6.2,1.1.5,1.5l4.7,6.8c.2.4.8.2.8-.3V10.3c0-.4-.2-.9-.5-1.2l-4.6-5.2Z"/>
  <path class="st1" d="M11.7,2.3c-.3,0-.4.3-.2.5l4.3,4.4c.5.5,1.2.8,2,.8h11.2c.4,0,.6-.4.3-.7l-3.7-4.6c-.2-.2-.5-.4-.8-.4,0,0-13.1,0-13.1,0Z"/>
  <path class="st0" d="M18.3,10c-.4,0-.8.3-.8.8v55.2c0,.5.4.9.9.9h9.8c1.1,0,1.9-.9,1.9-1.9V10.7c0-.4-.3-.8-.8-.8h-11ZM19.5,52.9c0-1,.8-1.9,1.9-1.9s1.9.8,1.9,1.9-.8,1.9-1.9,1.9c-1,0-1.9-.9-1.9-1.9ZM19.5,57.7c0-1,.8-1.9,1.9-1.9s1.9.8,1.9,1.9-.8,1.9-1.9,1.9c-1,0-1.9-.9-1.9-1.9ZM19.5,62.5c0-1,.8-1.9,1.9-1.9s1.9.8,1.9,1.9-.8,1.9-1.9,1.9-1.9-.9-1.9-1.9ZM27.3,46.4v17.1c0,.5-.4.9-.9.9s-.9-.4-.9-.9v-17.1c0-.5.4-.9.9-.9s.9.4.9.9ZM27.8,20.7c.3,0,.5.2.5.5v1.1c0,.3-.2.5-.5.5h-7.2c-.3,0-.5-.2-.5-.5v-1.1c0-.3.2-.5.5-.5h7.2ZM27.8,16.9c.3,0,.5.2.5.5v1.1c0,.3-.2.5-.5.5h-7.2c-.3,0-.5-.2-.5-.5v-1.1c0-.3.2-.5.5-.5h7.2ZM27.8,13c.3,0,.5.2.5.5v1.1c0,.3-.2.5-.5.5h-7.2c-.3,0-.5-.2-.5-.5v-1.1c0-.3.2-.5.5-.5h7.2Z"/>
  <path class="st1" d="M27.7,2.3c-.3,0-.3.3-.1.5l3.8,4.4c.5.5,1.2.8,2,.8h10.7c.4,0,.6-.4.3-.7l-3.7-4.6c-.2-.2-.5-.4-.8-.4,0,0-12.2,0-12.2,0Z"/>
  <path class="st0" d="M33.4,10c-.4,0-.8.3-.8.8v55.2c0,.5.4.9.9.9h9.8c1.1,0,1.9-.9,1.9-1.9V10.7c0-.4-.3-.8-.8-.8h-11ZM34.6,52.9c0-1,.8-1.9,1.9-1.9s1.9.8,1.9,1.9-.8,1.9-1.9,1.9c-1,0-1.9-.9-1.9-1.9ZM34.6,57.7c0-1,.8-1.9,1.9-1.9s1.9.8,1.9,1.9-.8,1.9-1.9,1.9c-1,0-1.9-.9-1.9-1.9ZM34.6,62.5c0-1,.8-1.9,1.9-1.9s1.9.8,1.9,1.9-.8,1.9-1.9,1.9-1.9-.9-1.9-1.9ZM42.4,46.4v17.1c0,.5-.4.9-.9.9s-.9-.4-.9-.9v-17.1c0-.5.4-.9.9-.9s.9.4.9.9ZM42.9,20.7c.3,0,.5.2.5.5v1.1c0,.3-.2.5-.5.5h-7.2c-.3,0-.5-.2-.5-.5v-1.1c0-.3.2-.5.5-.5h7.2ZM42.9,16.9c.3,0,.5.2.5.5v1.1c0,.3-.2.5-.5.5h-7.2c-.3,0-.5-.2-.5-.5v-1.1c0-.3.2-.5.5-.5h7.2ZM42.9,13c.3,0,.5.2.5.5v1.1c0,.3-.2.5-.5.5h-7.2c-.3,0-.5-.2-.5-.5v-1.1c0-.3.2-.5.5-.5h7.2Z"/>
  <path class="st1" d="M43.1,2.3c-.3,0-.4.3-.2.5l3.8,4.4c.5.5,1.2.8,2,.8h10.6c.4,0,.6-.4.3-.7l-3.7-4.6c-.2-.2-.5-.4-.8-.4,0,0-12,0-12,0Z"/>
  <path class="st0" d="M48.5,10c-.4,0-.8.3-.8.8v55.2c0,.5.4.9.9.9h9.8c1.1,0,1.9-.9,1.9-1.9V10.7c0-.4-.3-.8-.8-.8h-11ZM49.8,52.9c0-1,.8-1.9,1.9-1.9s1.9.8,1.9,1.9-.8,1.9-1.9,1.9c-1.1,0-1.9-.9-1.9-1.9ZM49.8,57.7c0-1,.8-1.9,1.9-1.9s1.9.8,1.9,1.9-.8,1.9-1.9,1.9c-1.1,0-1.9-.9-1.9-1.9ZM49.8,62.5c0-1,.8-1.9,1.9-1.9s1.9.8,1.9,1.9-.8,1.9-1.9,1.9-1.9-.9-1.9-1.9ZM57.6,46.4v17.1c0,.5-.4.9-.9.9s-.9-.4-.9-.9v-17.1c0-.5.4-.9.9-.9s.9.4.9.9ZM58,20.7c.3,0,.5.2.5.5v1.1c0,.3-.2.5-.5.5h-7.2c-.3,0-.5-.2-.5-.5v-1.1c0-.3.2-.5.5-.5h7.2ZM58,16.9c.3,0,.5.2.5.5v1.1c0,.3-.2.5-.5.5h-7.2c-.3,0-.5-.2-.5-.5v-1.1c0-.3.2-.5.5-.5h7.2ZM58,13c.3,0,.5.2.5.5v1.1c0,.3-.2.5-.5.5h-7.2c-.3,0-.5-.2-.5-.5v-1.1c0-.3.2-.5.5-.5h7.2Z"/>
</svg>