<?xml version="1.0" encoding="UTF-8"?>
<svg id="Layer_1" xmlns="http://www.w3.org/2000/svg" xmlns:xlink="http://www.w3.org/1999/xlink" version="1.1" viewBox="0 0 73.8 80.9">
  <!-- Generator: Adobe Illustrator 29.2.1, SVG Export Plug-In . SVG Version: 2.1.0 Build 116)  -->
  <defs>
    <style>
      .st0 {
        fill: none;
      }

      .st1 {
        fill: #053242;
      }

      .st2 {
        fill: #096380;
      }

      .st3 {
        clip-path: url(#clippath);
      }
    </style>
    <clipPath id="clippath">
      <rect class="st0" x="2.4" y="2.4" width="69" height="76"/>
    </clipPath>
  </defs>
  <g class="st3">
    <g>
      <path class="st1" d="M2.4,30.4v-14.4c0-2.2.4-2.6,2.5-2.6,6.3-.1,12.4-1.1,18.4-3.3,4.5-1.6,8.6-3.9,12.2-7.1,1-.9,1.6-.9,2.6,0,6.1,5.3,13.4,8.2,21.2,9.5,3.2.5,6.4.7,9.7.9,1.9.1,2.3.5,2.3,2.4,0,8.3,0,16.6,0,24.9.2,9.8-3.5,17.9-10.1,24.8-6.5,6.7-14.5,10.9-23.5,12.9-.7.2-1.6,0-2.3,0-11.6-2.8-21.1-8.8-27.8-19-3.5-5.2-5.3-11-5.2-17.4v-11.4ZM26.9,37.9c-3.1,1.1-4.1,2.5-4.1,5.6v9.7c0,3.4,1.9,5.3,5.2,5.3h17.7c3.3,0,5.2-2,5.2-5.2v-9.6c0-3.3-.9-4.6-4-5.7v-2.4c0-1.8,0-3.6-.3-5.3-1-4.9-5.9-8.4-11.1-7.7-4.3.5-8.2,4.2-8.6,8.6-.2,2.2,0,4.4,0,6.7h0Z"/>
      <path class="st2" d="M36.8,55.3h-8.9c-1.4,0-2-.5-2-2v-10.2c0-1.5.5-2,2-2h17.8c1.5,0,2,.5,2,2.1v10.1c0,1.6-.5,2.1-2.1,2.1-2.8,0-5.8,0-8.8,0h0ZM38.4,48.2v-1.6c0-.9-.7-1.5-1.5-1.5s-1.5.6-1.6,1.5c0,1.1,0,2.2,0,3.3,0,.9.7,1.5,1.5,1.5s1.5-.6,1.6-1.5c0-.6,0-1.2,0-1.7h0Z"/>
      <path class="st2" d="M30,37.8c0-2.2-.2-4.3,0-6.4.4-3.5,3.7-6,7.2-5.9,3.6.2,6.5,3,6.6,6.6,0,1.9,0,3.7,0,5.7h-13.8Z"/>
    </g>
  </g>
</svg>