<?xml version="1.0" encoding="UTF-8"?>
<svg id="Layer_1" xmlns="http://www.w3.org/2000/svg" xmlns:xlink="http://www.w3.org/1999/xlink" version="1.1" viewBox="0 0 68.7 69.1">
  <!-- Generator: Adobe Illustrator 29.2.1, SVG Export Plug-In . SVG Version: 2.1.0 Build 116)  -->
  <defs>
    <style>
      .st0 {
        fill: #053242;
      }

      .st1 {
        fill: #096380;
      }
    </style>
  </defs>
  <path class="st0" d="M46.7,41h-12c-.8,0-1.4-.6-1.4-1.4s.6-1.4,1.4-1.4h12c.8,0,1.4.6,1.4,1.4,0,.8-.6,1.4-1.4,1.4ZM34.7,50c-.8,0-1.4.6-1.4,1.4s.6,1.4,1.4,1.4h3.5c.8,0,1.4-.6,1.4-1.4s-.6-1.4-1.4-1.4h-3.5ZM46.7,26.3h-12c-.8,0-1.4.6-1.4,1.4s.6,1.4,1.4,1.4h12c.8,0,1.4-.6,1.4-1.4,0-.8-.6-1.4-1.4-1.4ZM29.8,39.6c0,2.6-2.1,4.6-4.6,4.6s-4.6-2.1-4.6-4.6,2.1-4.6,4.6-4.6,4.6,2,4.6,4.6ZM28.4,38.2l-.2-.2-.8-.8v-.2c-.1,0-.3.2-.3.2l-3,3-.8-.8-.2-.2v.2c0,0-.9.8-.9.8l-.2.2.2.2,1.7,1.7.2.2.2-.2,3.9-3.9.2-.2ZM29.8,51.4c0,2.6-2.1,4.6-4.6,4.6s-4.6-2.1-4.6-4.6,2.1-4.6,4.6-4.6,4.6,2,4.6,4.6ZM28.4,50l-.2-.2-.8-.8-.2-.2v.2c0,0-3.1,3-3.1,3l-.8-.8-.2-.2v.3c-.1,0-.9.7-.9.7l-.2.2.2.2,1.7,1.7.2.2.2-.2,3.9-3.9.2-.2ZM20.6,27.7c0-2.6,2.1-4.6,4.6-4.6s4.6,2.1,4.6,4.6-2.1,4.6-4.6,4.6-4.6-2-4.6-4.6ZM22,28.6l.2.2,1.7,1.7.2.2.2-.2,3.9-3.9.2-.2-.2-.2-.8-.8-.2-.2-.2.2-3,3-.8-.8-.2-.2v.2s-.8.8-.8.8l-.2.2ZM23.4,15.4v-4.2c0-1.6,1.3-2.8,2.8-2.8h1.1c0-4,3.1-7.1,7-7.1s7,3.1,7,7h0c0,.1,1.1.1,1.1.1,1.6,0,2.8,1.3,2.8,2.8v4.2c0,1.6-1.3,2.8-2.8,2.8h-16.1c-1.6,0-2.9-1.2-2.9-2.8ZM30.8,8.3h7.2c0-2.1-1.6-3.7-3.6-3.7s-3.6,1.6-3.6,3.6c0,0,0,.1,0,.1Z"/>
  <path class="st1" d="M51.9,10.6h-4.4v5.5h4.4v34.3h0v12.2H16.9V16.2h0c0-.1,4.4-.1,4.4-.1v-5.5h-4.4c-3.2,0-5.9,2.6-5.9,5.9v45.7c0,3.2,2.6,5.9,5.9,5.9h35.1c3.2,0,5.9-2.6,5.9-5.9V16.5c-.1-3.2-2.8-5.9-6-5.9Z"/>
</svg>