<?xml version="1.0" encoding="UTF-8"?>
<svg id="Layer_1" xmlns="http://www.w3.org/2000/svg" xmlns:xlink="http://www.w3.org/1999/xlink" version="1.1" viewBox="0 0 68.7 69.1">
  <!-- Generator: Adobe Illustrator 29.2.1, SVG Export Plug-In . SVG Version: 2.1.0 Build 116)  -->
  <defs>
    <style>
      .st0 {
        fill: #053242;
      }

      .st1 {
        fill: #096380;
      }

      .st2 {
        isolation: isolate;
        opacity: .3;
      }

      .st2, .st3 {
        fill: #0b6280;
      }

      .st4 {
        fill: #fff;
      }

      .st5 {
        opacity: .6;
      }
    </style>
  </defs>
  <g>
    <g class="st5">
      <path class="st3" d="M48.3,42.5c.8-.5,1.3-1,1.2-2,0-.9-.7-1.6-1.6-1.7h-25.9c-.3,0-.7,0-1.1,0-.7.2-1.1.7-1.2,1.4s.1,1.3.7,1.8c.1,0,.3.2.5.3-.1.3-.2.7-.3,1.1-.6,2-1.2,4-1.8,6.1-.1.3-.2.6-.6.6h-4.5c-2.9,0-5.2-2.5-5.2-5.5v-17.4c0-2.9,2.2-5.2,5-5.5h41.1c2.8,0,5,1.5,5.7,4.1.2.6.2,1.2.2,1.8v16.7c0,3.5-2.3,5.9-5.8,5.9h-3.9c-.2,0-.5-.2-.6-.3-.4-2.5-1.1-5-1.9-7.5h0ZM19.8,29.4c0,1,.7,1.8,1.7,1.9,1.1,0,2-.7,2-1.7s-.8-2-1.9-2c-1-.2-1.7.6-1.8,1.8h0Z"/>
    </g>
    <path class="st0" d="M48.3,42.5c.8-.5,1.3-1,1.2-2,0-.9-.7-1.6-1.6-1.7h-25.9c-.3,0-.7,0-1.1,0-.7.2-1.1.7-1.2,1.4s.1,1.3.7,1.8c.1,0,.3.2.5.3-.1.3-.2.7-.3,1.1-.6,2-1.2,4-1.8,6.1-.1.3-.2.6-.6.6h-4.5c-2.9,0-5.2-2.5-5.2-5.5v-17.4c0-2.9,2.2-5.2,5-5.5h41.1c2.8,0,5,1.5,5.7,4.1.2.6.2,1.2.2,1.8v16.7c0,3.5-2.3,5.9-5.8,5.9h-3.9c-.2,0-.5-.2-.6-.3-.4-2.5-1.1-5-1.9-7.5h0ZM19.8,29.4c0,1,.7,1.8,1.7,1.9,1.1,0,2-.7,2-1.7s-.8-2-1.9-2c-1-.2-1.7.6-1.8,1.8h0Z"/>
  </g>
  <g>
    <path class="st2" d="M21.7,17.9v-7.2c0-1.4.7-2.2,2.1-2.2h21.8c1.4,0,2.1.7,2.1,2.2v7.2h-26Z"/>
    <path class="st1" d="M21.7,17.9v-7.2c0-1.4.7-2.2,2.1-2.2h21.8c1.4,0,2.1.7,2.1,2.2v7.2h-26Z"/>
  </g>
  <path class="st1" d="M49,61.5c0,0-.2,0,0,0h-28.4c-.7,0-1.2-.6-1-1.3,1.7-5.7,3.3-11.3,5-17,.1-.4.5-.6.8-.6h18.2c.5,0,.7.2.9.7,1.7,5.9,3.5,11.8,5.2,17.7,0,.3-.3.5-.7.5h0ZM34.7,55.9h7.4c1.1,0,2-.8,2-1.9s-.8-1.9-1.9-1.9h-14.8c-.8,0-1.4.4-1.7,1.2-.5,1.3.4,2.6,1.8,2.6,2.3,0,4.7,0,7.2,0h0ZM34.7,46.4h-5.4c-1.2,0-2,.8-2,1.9s.8,1.9,2,1.9h10.9c1.2,0,2-.8,2-1.9s-.8-1.9-2-1.9h-5.5Z"/>
  <path class="st4" d="M34.7,55.9h-7.3c-1.4,0-2.4-1.3-1.8-2.6.3-.8.9-1.2,1.7-1.2h14.8c1.1,0,1.9.8,1.9,1.9s-.8,1.9-2,1.9c-2.4,0-4.9,0-7.3,0h0Z"/>
  <path class="st4" d="M34.7,46.4h5.4c1.2,0,2,.8,2,1.9s-.8,1.9-2,1.9h-10.9c-1.2,0-2-.8-2-1.9s.8-1.9,2-1.9h5.5Z"/>
</svg>