<?xml version="1.0" encoding="UTF-8"?>
<svg id="Layer_1" xmlns="http://www.w3.org/2000/svg" xmlns:xlink="http://www.w3.org/1999/xlink" version="1.1" viewBox="0 0 68.7 69.1">
  <!-- Generator: Adobe Illustrator 29.2.1, SVG Export Plug-In . SVG Version: 2.1.0 Build 116)  -->
  <defs>
    <style>
      .st0 {
        fill: #053242;
      }

      .st1 {
        fill: #096380;
      }
    </style>
  </defs>
  <path class="st0" d="M31.4,59.6H4.3c-1.8,0-3.3,1.5-3.3,3.4v4.1h33.8v-4.1c0-1.9-1.5-3.4-3.4-3.4Z"/>
  <circle class="st0" cx="32.2" cy="10" r="7.3"/>
  <circle class="st0" cx="51" cy="19.9" r="4.5"/>
  <path class="st1" d="M48.8,14.3l-7.6-4.8c0,.9,0,1.8-.3,2.7-.7,2.5-2.3,4.5-4.5,5.7l8.6,3c-.4-2.7,1.1-5.5,3.8-6.6Z"/>
  <path class="st1" d="M21,22.9c3.1.8,5.8,2.9,7.4,5.7.2.4.4.7.6,1.1l5.1-10.9c-.6.1-1.3.2-2,.2s-1.6-.1-2.4-.3c-3-.8-5.3-3.1-6.2-5.8l-6.7,9.6h.9c1.2,0,2.3.2,3.3.4Z"/>
  <path class="st1" d="M28.1,41.3c-2.2,3.4-6,5.6-10.3,5.6s-2.1,0-3.2-.4c-3.1-.8-5.5-2.7-7.1-5.2l-3.4,17.2h27.6l-3.6-17.2Z"/>
  <path class="st1" d="M54.1,25.1c-.5.3-1,.5-1.5.7-.5.1-1,.2-1.6.2s-1.3-.1-1.9-.3l2.3,6.3,8.4,2.4,1-1.8-6.9-4,.2-3.5Z"/>
  <path class="st1" d="M61.5,14.3l-6.6,1.1c.9.8,1.5,1.8,1.8,2.9,0,.6.2,1.1.2,1.7l2.8-1.9,6.9,4,1-1.8-6.1-6Z"/>
  <circle class="st0" cx="17.8" cy="34.7" r="10.1"/>
</svg>