<?xml version="1.0" encoding="UTF-8"?>
<svg id="Layer_1" xmlns="http://www.w3.org/2000/svg" xmlns:xlink="http://www.w3.org/1999/xlink" version="1.1" viewBox="0 0 68.7 69.1">
  <!-- Generator: Adobe Illustrator 29.2.1, SVG Export Plug-In . SVG Version: 2.1.0 Build 116)  -->
  <defs>
    <style>
      .st0 {
        fill: #053242;
      }

      .st1 {
        fill: #096380;
      }
    </style>
  </defs>
  <path class="st1" d="M67,12.8c-6.1,0-12-1.9-17-5.4l-1.4-1c-.2-.2-.6-.2-.8,0l-1.4,1c-5,3.6-10.9,5.4-17,5.4s-.7.3-.7.7v3c3.2,1.4,6.7,2.1,10.2,2.1s3.8,1.7,3.8,3.8v5.6c.2,0,.3.1.4.1l2.8,2.8,7.4-7.4c0-.1.3-.2.5-.2s.4.1.5.2l2.3,2.3c.3.3.3.7,0,1l-10.2,10.1c0,0-.3.2-.5.2s-.4,0-.5-.2l-2.9-2.9c-.5,4.5-1.7,8.8-3.5,12.9,2.6,2.7,5.5,5.1,8.9,7,0,0,.2,0,.3,0s.2,0,.3,0c11.8-6.7,19.2-19.3,19.2-32.9v-7.6c0-.3-.3-.6-.7-.6Z"/>
  <path class="st1" d="M39,21.7c-6.1,0-12-1.9-17-5.4l-1.4-1c-.2-.2-.6-.2-.8,0l-1.4,1c-5,3.6-10.9,5.4-17,5.4s-.7.3-.7.7v7.6c0,13.6,7.3,26.2,19.1,32.9.1,0,.2,0,.3,0s.2,0,.3,0c11.8-6.7,19.1-19.3,19.1-32.9v-7.6c0-.4-.2-.7-.5-.7ZM28.5,35.6l-10.1,10.2c-.1,0-.3.2-.5.2s-.4,0-.5-.2l-5.6-5.6c-.3-.3-.3-.7,0-1l2.3-2.3c.3-.3.7-.3,1,0l2.8,2.8,7.4-7.4c.1,0,.3-.2.5-.2s.4,0,.5.2l2.3,2.3c.2.3.2.8,0,1Z"/>
  <path class="st0" d="M20.2,21.7c-4.3,2.7-9,4.5-14,5.2v3.1c0,10.6,5.2,20.5,14,26.6,8.7-6,14-15.9,14-26.6v-3.1c-5.1-.7-9.8-2.5-14-5.2ZM28.5,35.6l-10.1,10.2c-.1,0-.3.2-.5.2s-.4,0-.5-.2l-5.6-5.6c-.3-.3-.3-.7,0-1l2.3-2.3c.3-.3.7-.3,1,0l2.8,2.8,7.4-7.4c.1,0,.3-.2.5-.2s.4,0,.5.2l2.3,2.3c.2.3.2.8,0,1Z"/>
  <path class="st0" d="M48.2,12.8c-4.3,2.7-9,4.5-14,5.2v.2c1.5.3,3.1.4,4.7.4s3.8,1.7,3.8,3.8v5.6c.2,0,.3.1.4.1l2.8,2.8,7.4-7.4c0-.1.3-.2.5-.2s.4.1.5.2l2.3,2.3c.3.3.3.7,0,1l-10.2,10.1c0,0-.3.2-.5.2s-.4,0-.5-.2l-2.9-2.9h0c-.2,2.3-.7,4.7-1.3,7,2,2.5,4.3,4.7,7,6.6,8.7-6,14-15.9,14-26.6v-3c-5.1-.7-9.7-2.4-14-5.2Z"/>
</svg>