<?xml version="1.0" encoding="UTF-8"?>
<svg id="Layer_1" xmlns="http://www.w3.org/2000/svg" xmlns:xlink="http://www.w3.org/1999/xlink" version="1.1" viewBox="0 0 63.8 105.1">
  <!-- Generator: Adobe Illustrator 29.2.1, SVG Export Plug-In . SVG Version: 2.1.0 Build 116)  -->
  <defs>
    <style>
      .st0 {
        fill: none;
      }

      .st1 {
        fill: #053242;
      }

      .st2 {
        fill: #096380;
      }

      .st3 {
        clip-path: url(#clippath);
      }
    </style>
    <clipPath id="clippath">
      <rect class="st0" x="3.1" y="3" width="57.2" height="99.6"/>
    </clipPath>
  </defs>
  <g class="st3">
    <g>
      <path class="st1" d="M3.1,3h57.1v89.5H3.1V3ZM13.1,10.4v4.8h37.2v-4.8H13.1ZM50.2,27.7v-4.8H13.1v4.8h37.1ZM50.3,35.4H13.1v4.8h37.2s0-4.8,0-4.8ZM50.3,52.6v-4.8H13.1v4.8h37.2ZM50.3,60.3H13.1v4.7h37.2s0-4.7,0-4.7ZM31.7,76.5v4.8h9.8v-4.8h-9.8ZM25.4,76.4c-1.4,0-2.5,1.1-2.5,2.5s1.2,2.5,2.5,2.5,2.4-1.2,2.4-2.5c.1-1.3-1-2.5-2.4-2.5ZM50.3,78.8c0-1.4-1.2-2.5-2.6-2.4-1.3,0-2.4,1.2-2.4,2.5s1.2,2.5,2.5,2.5c1.5,0,2.6-1.2,2.5-2.6ZM18,78.8c0-1.4-1.2-2.5-2.6-2.4s-2.5,1.2-2.4,2.6c.1,1.3,1.2,2.4,2.5,2.4,1.3,0,2.5-1.2,2.5-2.6Z"/>
      <path class="st2" d="M11.4,97.6c-.6,1.5-1.2,2.9-1.8,4.3-.1.2-.5.6-.7.6H3.1v-4.9h8.3Z"/>
      <path class="st2" d="M60.2,102.5h-5.7c-.3,0-.6-.3-.8-.5-.6-1.4-1.2-2.9-1.8-4.4h8.3v4.9h0Z"/>
      <rect class="st2" x="13" y="10.3" width="37.3" height="5.1"/>
      <rect class="st2" x="13" y="35.3" width="37.3" height="5.1"/>
      <rect class="st2" x="13" y="22.8" width="37.3" height="5.1"/>
      <rect class="st2" x="13" y="47.8" width="37.3" height="5.1"/>
      <rect class="st2" x="13" y="60.2" width="37.3" height="5.1"/>
    </g>
  </g>
</svg>