<?xml version="1.0" encoding="UTF-8"?>
<svg id="Layer_1" xmlns="http://www.w3.org/2000/svg" xmlns:xlink="http://www.w3.org/1999/xlink" version="1.1" viewBox="0 0 68.7 69.1">
  <!-- Generator: Adobe Illustrator 29.2.1, SVG Export Plug-In . SVG Version: 2.1.0 Build 116)  -->
  <defs>
    <style>
      .st0 {
        fill: none;
      }

      .st1 {
        fill: #053242;
      }

      .st2 {
        fill: #0b6280;
        isolation: isolate;
        opacity: .6;
      }

      .st3 {
        fill: #fff;
      }

      .st4 {
        clip-path: url(#clippath);
      }
    </style>
    <clipPath id="clippath">
      <rect class="st0" x="1.8" y="1.8" width="65.1" height="65.2" rx="9" ry="9"/>
    </clipPath>
  </defs>
  <g class="st4">
    <g>
      <g>
        <rect class="st2" x="1.8" y="1.8" width="65.1" height="65.1"/>
        <rect class="st1" x="1.8" y="1.8" width="65.1" height="65.1"/>
      </g>
      <g>
        <path class="st3" d="M11.2,39.3c-.4.4-.4,1,0,1.4l6.8,6.9c.6.6,1.7.2,1.7-.7v-2.8c0-.6.4-1,1-1h14.3c.6,0,1-.4,1-1v-4.2c0-.6-.4-1-1-1h-14.3c-.6,0-1-.4-1-1v-2.8c0-.9-1.1-1.3-1.7-.7l-6.8,6.9Z"/>
        <path class="st3" d="M57.7,51.5c.4.4.4,1,0,1.4l-6.8,6.9c-.6.6-1.7.2-1.7-.7v-2.8c0-.6-.4-1-1-1h-14.3c-.6,0-1-.4-1-1v-4.3c0-.6.4-1,1-1h14.3c.6,0,1-.4,1-1v-2.8c0-.9,1.1-1.3,1.7-.7l6.8,7Z"/>
        <path class="st3" d="M11.2,16.2c-.4.4-.4,1,0,1.4l6.8,6.9c.6.6,1.7.2,1.7-.7v-2.8c0-.6.4-1,1-1h14.3c.6,0,1-.4,1-1v-4.2c0-.6-.4-1-1-1h-14.3c-.6,0-1-.4-1-1v-2.9c0-.9-1.1-1.3-1.7-.7l-6.8,7Z"/>
        <path class="st3" d="M57.7,28.2c.4.4.4,1,0,1.4l-6.8,6.9c-.6.6-1.7.2-1.7-.7v-2.8c0-.6-.4-1-1-1h-14.3c-.6,0-1-.4-1-1v-4.2c0-.6.4-1,1-1h14.3c.6,0,1-.4,1-1v-2.8c0-.9,1.1-1.3,1.7-.7l6.8,6.9Z"/>
      </g>
    </g>
  </g>
</svg>