<?xml version="1.0" encoding="UTF-8"?>
<svg id="Layer_1" xmlns="http://www.w3.org/2000/svg" xmlns:xlink="http://www.w3.org/1999/xlink" version="1.1" viewBox="0 0 107.4 102.9">
  <!-- Generator: Adobe Illustrator 29.2.1, SVG Export Plug-In . SVG Version: 2.1.0 Build 116)  -->
  <defs>
    <style>
      .st0 {
        fill: #053242;
      }

      .st1 {
        fill: #096380;
      }

      .st2 {
        fill: #fff;
      }
    </style>
  </defs>
  <path class="st0" d="M14.8,23.1c-5.1,0-9.2,4.1-9.2,9.2v46.7c0,5.1,4.1,9.2,9.2,9.2h51.5V23.1H14.8Z"/>
  <g>
    <rect class="st1" x="68.8" y="39.6" width="4.1" height="14.2"/>
    <rect class="st1" x="68.8" y="56.8" width="16" height="14.2"/>
    <rect class="st1" x="75.3" y="39.6" width="21.3" height="14.2"/>
    <rect class="st1" x="68.8" y="74" width="4.1" height="14.2"/>
    <path class="st1" d="M96.6,87.3v-13.3h-21.3v14.2h17.3c2,0,3.8-.6,5.3-1.7-.4.3-.8.5-1.3.8Z"/>
    <path class="st1" d="M99.1,85.5c-.3.3-.7.7-1.1.9,2.3-1.7,3.8-4.4,3.8-7.4v-5h-2.7s0,11.5,0,11.5Z"/>
    <rect class="st1" x="99.1" y="39.6" width="2.7" height="14.2"/>
    <rect class="st1" x="87.3" y="56.8" width="14.5" height="14.2"/>
  </g>
  <path class="st1" d="M73,21.4c.2,2.4,1.2,4.4,3.1,5.9,1.3.9,2.7,1.4,4.4,1.3v-1.8c0-2.9,0-5.9.8-8.7,1.1-4.2,3.1-7.9,6-11.1.2-.3.4-.5.7-.9.2,1.2.3,2.1.4,2.9.6,2.9,2,5.3,4,7.4,1.8,1.8,3.6,3.4,5.3,5.4,3.5,4,4.4,9.2,2.7,14.2-.2.5-.7.6-1.2.6-9.9,0-18.8,0-28.7,0s-.7-.2-.8-.5c-2-4.9-.5-11.7,3.3-14.8h0Z"/>
  <g>
    <path class="st2" d="M12.7,60.4c-.4.4-.4,1,0,1.4l6.8,6.9c.6.6,1.7.2,1.7-.7v-2.8c0-.6.4-1,1-1h14.3c.6,0,1-.4,1-1v-4.2c0-.6-.4-1-1-1h-14.3c-.6,0-1-.4-1-1v-2.8c0-.9-1.1-1.3-1.7-.7l-6.8,6.9Z"/>
    <path class="st2" d="M59.2,72.6c.4.4.4,1,0,1.4l-6.8,6.9c-.6.6-1.7.2-1.7-.7v-2.8c0-.6-.4-1-1-1h-14.3c-.6,0-1-.4-1-1v-4.3c0-.6.4-1,1-1h14.3c.6,0,1-.4,1-1v-2.8c0-.9,1.1-1.3,1.7-.7l6.8,7Z"/>
    <path class="st2" d="M12.7,37.3c-.4.4-.4,1,0,1.4l6.8,6.9c.6.6,1.7.2,1.7-.7v-2.8c0-.6.4-1,1-1h14.3c.6,0,1-.4,1-1v-4.2c0-.6-.4-1-1-1h-14.3c-.6,0-1-.4-1-1v-2.9c0-.9-1.1-1.3-1.7-.7l-6.8,7Z"/>
    <path class="st2" d="M59.2,49.3c.4.4.4,1,0,1.4l-6.8,6.9c-.6.6-1.7.2-1.7-.7v-2.8c0-.6-.4-1-1-1h-14.3c-.6,0-1-.4-1-1v-4.2c0-.6.4-1,1-1h14.3c.6,0,1-.4,1-1v-2.8c0-.9,1.1-1.3,1.7-.7l6.8,6.9Z"/>
  </g>
</svg>