<?xml version="1.0" encoding="UTF-8"?>
<svg id="Layer_1" xmlns="http://www.w3.org/2000/svg" xmlns:xlink="http://www.w3.org/1999/xlink" version="1.1" viewBox="0 0 107.2 55">
  <!-- Generator: Adobe Illustrator 29.2.1, SVG Export Plug-In . SVG Version: 2.1.0 Build 116)  -->
  <defs>
    <style>
      .st0 {
        fill: #053242;
      }

      .st1 {
        fill: #096380;
      }
    </style>
  </defs>
  <path class="st0" d="M80.8,48.2h24.5c-.6-8-4-14.4-10.8-18.5-7.9-4.8-16.1-4.8-24,.2-.5.3-1,.7-1.5,1.1,6.3,4,10.3,9.8,11.8,17.2h0Z"/>
  <path class="st1" d="M82.6,23c6.2,0,11-4.9,11.1-11,0-6-5.1-11.2-10.9-11-5.8-.2-11,5-10.9,10.9,0,6.1,4.8,11.1,10.7,11.1h0Z"/>
  <path class="st0" d="M39,31c-.6-.5-1.2-.9-1.9-1.3-7.9-4.8-16.1-4.8-24,.2-6.6,4.2-9.9,10.5-10.5,18.3h24.5c1.6-7.4,5.6-13.2,11.9-17.2Z"/>
  <path class="st1" d="M25.1,23c6.2,0,11-4.9,11.1-11,0-6-5.2-11.2-11-11-5.8-.2-11,5-10.9,11,0,6,4.9,11,10.8,11h0Z"/>
  <path class="st1" d="M53.8,25.2c6.9,0,12.3-5.4,12.3-12.2,0-6.7-5.7-12.4-12.1-12.3-6.5-.2-12.2,5.6-12.1,12.2,0,6.7,5.4,12.3,11.9,12.3h0Z"/>
  <path class="st0" d="M28.9,53.8c0-13.9,11.2-25.1,25.1-25.1s25.1,11.2,25.1,25.1H28.9Z"/>
</svg>