<?xml version="1.0" encoding="UTF-8"?>
<svg id="Layer_1" xmlns="http://www.w3.org/2000/svg" xmlns:xlink="http://www.w3.org/1999/xlink" version="1.1" viewBox="0 0 68.7 69.1">
  <!-- Generator: Adobe Illustrator 29.2.1, SVG Export Plug-In . SVG Version: 2.1.0 Build 116)  -->
  <defs>
    <style>
      .st0 {
        fill: #053242;
      }

      .st1 {
        fill: #096380;
      }
    </style>
  </defs>
  <path class="st1" d="M66.3,20c.4-.3,0-.9-.3-.9H10.8c-.6,0-1.1.2-1.6.5l-7,4.9c-.4.3-.2.8.3.8h57.1c.5,0,.9-.2,1.2-.5l5.5-4.8Z"/>
  <path class="st1" d="M67.9,21.7c0-.3-.3-.4-.5-.2l-4.5,4.5c-.6.5-.9,1.3-.9,2.1v17.9c0,.4.4.6.7.4l4.7-3.9c.3-.2.4-.5.4-.9v-19.9h0Z"/>
  <path class="st0" d="M59.9,28.6c0-.4-.4-.8-.8-.8H1.7c-.5,0-.9.4-.9.9v16.4c0,1.1.9,2,2,2h56.4c.4,0,.8-.4.8-.8v-17.7h0ZM15.3,35.1c1.1,0,2,.9,2,2s-.9,2-2,2-2-.9-2-2c0-1.1.9-2,2-2ZM10.3,35.1c1.1,0,2,.9,2,2s-.9,2-2,2-2-.9-2-2,.9-2,2-2ZM5.3,35.1c1.1,0,2,.9,2,2s-.9,2-2,2-2-.9-2-2c0-1.1.9-2,2-2ZM22,44.3H4.2c-.5,0-.9-.4-.9-.9s.4-.9.9-.9h17.8c.5,0,.9.4.9.9s-.4.9-.9.9ZM56.8,44.7c0,.3-.2.5-.5.5h-15.3c-.3,0-.5-.2-.5-.5v-13.7c0-.3.2-.5.5-.5h15.3c.3,0,.5.2.5.5v13.7Z"/>
  <g id="_x33_34cdf86-f970-4dc3-bf03-a3871b57ba84_x40_5">
    <path class="st0" d="M52.3,34.8c-.4-.4-1,.1-1.6.4l-4.3,2.5c-.6.3-1.1.2-1.3,0l-.4-.2c-.8-.5-.8-1.7,0-2.2l6-3.4c.8-.5,1.9.1,1.9,1.1v1.7c0,.1-.1.2-.3,0Z"/>
    <path class="st0" d="M52.3,41.3c-.4.4-1-.1-1.6-.4l-4.3-2.5c-.6-.3-1.1-.2-1.3,0l-.4.2c-.8.5-.8,1.7,0,2.2l6,3.4c.8.5,1.9-.1,1.9-1.1v-1.7c0-.1-.1-.2-.3,0h0Z"/>
    <path class="st0" d="M51.2,38.2c0,.2,0,.7,0,.9-.1.3-.4.4-.6.3-.7-.4-1.3-.7-1.9-1-.2,0-.2-.2-.2-.3s0-.2.2-.3c.6-.3,1.2-.7,1.9-1,.2-.1.5,0,.6.3,0,.2,0,.6,0,.9v.4h0Z"/>
  </g>
</svg>