<?xml version="1.0" encoding="UTF-8"?>
<svg id="Layer_1" xmlns="http://www.w3.org/2000/svg" xmlns:xlink="http://www.w3.org/1999/xlink" version="1.1" viewBox="0 0 76.4 77.5">
  <!-- Generator: Adobe Illustrator 29.2.1, SVG Export Plug-In . SVG Version: 2.1.0 Build 116)  -->
  <defs>
    <style>
      .st0 {
        fill: none;
      }

      .st1 {
        fill: #053242;
      }

      .st2 {
        fill: #096380;
      }

      .st3 {
        fill: #0b6280;
        isolation: isolate;
        opacity: .6;
      }

      .st4 {
        fill: #fff;
      }

      .st5 {
        clip-path: url(#clippath);
      }
    </style>
    <clipPath id="clippath">
      <rect class="st0" x="1.8" y="10.2" width="65.1" height="65.2" rx="9" ry="9"/>
    </clipPath>
  </defs>
  <g class="st5">
    <g>
      <g>
        <rect class="st3" x="1.8" y="10.2" width="65.1" height="65.1"/>
        <rect class="st2" x="1.8" y="10.2" width="65.1" height="65.1"/>
      </g>
      <g>
        <path class="st4" d="M11.2,47.7c-.4.4-.4,1,0,1.4l6.8,6.9c.6.6,1.7.2,1.7-.7v-2.8c0-.6.4-1,1-1h14.3c.6,0,1-.4,1-1v-4.2c0-.6-.4-1-1-1h-14.3c-.6,0-1-.4-1-1v-2.8c0-.9-1.1-1.3-1.7-.7l-6.8,6.9Z"/>
        <path class="st4" d="M57.7,59.9c.4.4.4,1,0,1.4l-6.8,6.9c-.6.6-1.7.2-1.7-.7v-2.8c0-.6-.4-1-1-1h-14.3c-.6,0-1-.4-1-1v-4.3c0-.6.4-1,1-1h14.3c.6,0,1-.4,1-1v-2.8c0-.9,1.1-1.3,1.7-.7l6.8,7Z"/>
        <path class="st4" d="M11.2,24.6c-.4.4-.4,1,0,1.4l6.8,6.9c.6.6,1.7.2,1.7-.7v-2.8c0-.6.4-1,1-1h14.3c.6,0,1-.4,1-1v-4.2c0-.6-.4-1-1-1h-14.3c-.6,0-1-.4-1-1v-2.9c0-.9-1.1-1.3-1.7-.7l-6.8,7Z"/>
        <path class="st4" d="M57.7,36.6c.4.4.4,1,0,1.4l-6.8,6.9c-.6.6-1.7.2-1.7-.7v-2.8c0-.6-.4-1-1-1h-14.3c-.6,0-1-.4-1-1v-4.2c0-.6.4-1,1-1h14.3c.6,0,1-.4,1-1v-2.8c0-.9,1.1-1.3,1.7-.7l6.8,6.9Z"/>
      </g>
    </g>
  </g>
  <path class="st1" d="M70.8,2.6h-17.4c-1.1,0-1.9.9-1.9,1.9v17.1c0,1,.9,1.9,1.9,1.9h17.4c1.1,0,1.9-.9,1.9-1.9V4.5c0-1.1-.9-1.9-1.9-1.9Z"/>
  <path class="st4" d="M70.8,2.6c1.1,0,1.9.8,1.9,1.9v17.1c0,1.1-.9,1.9-1.9,1.9h-17.4c-1.1,0-1.9-.8-1.9-1.9V4.5c0-1.1.9-1.9,1.9-1.9h17.4ZM70.8,0h-17.4c-2.5,0-4.5,2-4.5,4.4v17.1c0,2.4,2,4.4,4.5,4.4h17.4c2.5,0,4.5-2,4.5-4.4V4.5c0-2.5-2.1-4.5-4.5-4.5Z"/>
  <g id="_x33_34cdf86-f970-4dc3-bf03-a3871b57ba84_x40_5">
    <path class="st4" d="M66.8,9.2c-.5-.5-1.2.1-1.9.5l-5,2.9c-.7.4-1.2.2-1.6,0l-.4-.2c-1-.6-1-2,0-2.6l7-4c1-.6,2.2.1,2.2,1.3v1.9c0,.2-.2.3-.3.1Z"/>
    <path class="st4" d="M66.8,16.9c-.5.5-1.2-.1-1.9-.5l-5-2.9c-.7-.4-1.2-.2-1.6,0l-.4.2c-1,.6-1,2,0,2.6l7,4c1,.6,2.2-.1,2.2-1.3v-1.9c0-.2-.2-.3-.3-.1h0Z"/>
    <path class="st4" d="M65.5,13.2c0,.3,0,.8,0,1-.1.4-.4.5-.7.3-.8-.4-1.6-.8-2.3-1.2-.2-.1-.3-.2-.3-.4s0-.2.3-.4c.7-.4,1.5-.8,2.3-1.2.2-.1.5,0,.7.3,0,.3,0,.7,0,1v.5h0Z"/>
  </g>
</svg>