<?xml version="1.0" encoding="UTF-8"?>
<svg id="Layer_1" xmlns="http://www.w3.org/2000/svg" xmlns:xlink="http://www.w3.org/1999/xlink" version="1.1" viewBox="0 0 68.7 69.1">
  <!-- Generator: Adobe Illustrator 29.2.1, SVG Export Plug-In . SVG Version: 2.1.0 Build 116)  -->
  <defs>
    <style>
      .st0 {
        fill: #053242;
      }

      .st1 {
        fill: #096380;
      }
    </style>
  </defs>
  <path class="st1" d="M66.3,20c.4-.3,0-.9-.3-.9H10.8c-.6,0-1.1.2-1.6.5l-7,4.9c-.4.3-.2.8.3.8h57.1c.5,0,.9-.2,1.2-.5l5.5-4.8Z"/>
  <path class="st1" d="M67.9,21.7c0-.3-.3-.4-.5-.2l-4.5,4.5c-.6.5-.9,1.3-.9,2.1v17.9c0,.4.4.6.7.4l4.7-3.9c.3-.2.4-.5.4-.9v-19.9h0Z"/>
  <path class="st0" d="M59.9,28.6c0-.4-.4-.8-.8-.8H1.7c-.5,0-.9.4-.9.9v16.4c0,1.1.9,2,2,2h56.4c.4,0,.8-.4.8-.8v-17.7h0ZM15.3,35.1c1.1,0,2,.9,2,2s-.9,2-2,2-2-.9-2-2c0-1.1.9-2,2-2ZM10.3,35.1c1.1,0,2,.9,2,2s-.9,2-2,2-2-.9-2-2,.9-2,2-2ZM5.3,35.1c1.1,0,2,.9,2,2s-.9,2-2,2-2-.9-2-2c0-1.1.9-2,2-2ZM22,44.3H4.2c-.5,0-.9-.4-.9-.9s.4-.9.9-.9h17.8c.5,0,.9.4.9.9s-.4.9-.9.9ZM48.7,44.7c0,.3-.2.5-.5.5h-1.1c-.3,0-.5-.2-.5-.5v-13.7c0-.3.2-.5.5-.5h1.1c.3,0,.5.2.5.5v13.7ZM52.8,44.7c0,.3-.2.5-.5.5h-1.1c-.3,0-.5-.2-.5-.5v-13.7c0-.3.2-.5.5-.5h1.1c.3,0,.5.2.5.5v13.7ZM56.8,44.7c0,.3-.2.5-.5.5h-1.1c-.3,0-.5-.2-.5-.5v-13.7c0-.3.2-.5.5-.5h1.1c.3,0,.5.2.5.5v13.7Z"/>
</svg>