<?xml version="1.0" encoding="UTF-8"?>
<svg id="Layer_1" xmlns="http://www.w3.org/2000/svg" xmlns:xlink="http://www.w3.org/1999/xlink" version="1.1" viewBox="0 0 68.7 69.1">
  <!-- Generator: Adobe Illustrator 29.2.1, SVG Export Plug-In . SVG Version: 2.1.0 Build 116)  -->
  <defs>
    <style>
      .st0 {
        fill: none;
      }

      .st1 {
        fill: #053242;
      }

      .st2 {
        isolation: isolate;
        opacity: .6;
      }

      .st2, .st3 {
        fill: #0b6280;
      }

      .st4 {
        fill: #fff;
      }

      .st5 {
        opacity: .3;
      }

      .st6 {
        clip-path: url(#clippath);
      }
    </style>
    <clipPath id="clippath">
      <rect class="st0" x="1.8" y="1.8" width="65.1" height="65.2" rx="9" ry="9"/>
    </clipPath>
  </defs>
  <g class="st5">
    <g class="st6">
      <g>
        <rect class="st2" x="1.8" y="1.8" width="65.1" height="65.1"/>
        <rect class="st3" x="1.8" y="1.8" width="65.1" height="65.1"/>
      </g>
    </g>
  </g>
  <g>
    <path class="st2" d="M55.3,8.7H13.3c-2.6,0-4.7,2.1-4.7,4.7v42c0,2.6,2.1,4.7,4.7,4.7h42.1c2.6,0,4.7-2.1,4.7-4.7V13.4c0-2.6-2.2-4.7-4.8-4.7Z"/>
    <path class="st1" d="M55.3,8.7H13.3c-2.6,0-4.7,2.1-4.7,4.7v42c0,2.6,2.1,4.7,4.7,4.7h42.1c2.6,0,4.7-2.1,4.7-4.7V13.4c0-2.6-2.2-4.7-4.8-4.7Z"/>
  </g>
  <g id="_x33_34cdf86-f970-4dc3-bf03-a3871b57ba84_x40_5">
    <path class="st4" d="M45.1,25c-1.2-1.2-2.9.3-4.4,1.2l-11.6,6.7c-1.7.9-2.9.6-3.6.2l-1-.6c-2.3-1.3-2.3-4.6,0-6l16.2-9.4c2.3-1.3,5.2.3,5.2,3v4.5c0,.4-.4.6-.7.2Z"/>
    <path class="st4" d="M45.1,42.8c-1.2,1.2-2.9-.3-4.4-1.2l-11.6-6.7c-1.7-.9-2.9-.6-3.6-.2l-1,.6c-2.3,1.3-2.3,4.6,0,6l16.2,9.4c2.3,1.3,5.2-.3,5.2-3v-4.5c0-.4-.4-.6-.7-.2h0Z"/>
    <path class="st4" d="M42.2,34.3c0,.7,0,1.8-.2,2.4-.3.9-1,1.1-1.6.8-1.9-1-3.6-1.9-5.3-2.9-.5-.3-.7-.5-.7-.8s.2-.6.7-.8c1.6-.9,3.4-1.9,5.3-2.9.6-.3,1.2-.1,1.6.8.2.6.2,1.7.2,2.4v1h0Z"/>
  </g>
</svg>