<?xml version="1.0" encoding="UTF-8"?>
<svg id="Layer_1" xmlns="http://www.w3.org/2000/svg" xmlns:xlink="http://www.w3.org/1999/xlink" version="1.1" viewBox="0 0 128 64.3">
  <!-- Generator: Adobe Illustrator 29.2.1, SVG Export Plug-In . SVG Version: 2.1.0 Build 116)  -->
  <defs>
    <style>
      .st0 {
        fill: none;
      }

      .st1 {
        fill: #053242;
      }

      .st2 {
        fill: #096380;
      }

      .st3 {
        clip-path: url(#clippath);
      }
    </style>
    <clipPath id="clippath">
      <rect class="st0" x="1.5" y="2.6" width="125" height="59"/>
    </clipPath>
  </defs>
  <g class="st3">
    <g>
      <path class="st1" d="M64,2.6c-16.3,0-29.5,13.2-29.5,29.5s13.2,29.5,29.5,29.5,29.5-13.2,29.5-29.5S80.3,2.6,64,2.6ZM64,7.6l8.8,8.8h-5.8v8.8h-5.9v-8.8h-5.9l8.8-8.8ZM40.6,35.1v-5.9h8.8v-5.9l8.8,8.8-8.8,8.9v-5.9h-8.8ZM64,56.7l-8.8-8.8h5.9v-8.9h5.9v8.8h5.9l-8.9,8.9ZM78.6,35.1v5.9l-8.8-8.8,8.8-8.8v5.9h8.8v5.9h-8.8Z"/>
      <path class="st2" d="M113.3,13.1l3.6-3.4c12.4,11.5,13.4,32.2,0,44.8l-3.6-3.5c5.2-5.2,8.1-11.6,8.1-19s-2.8-13.6-8.1-18.9Z"/>
      <path class="st2" d="M106.1,20.1l3.6-3.4c8.7,8,9.1,22.4,0,31l-3.4-3.6c3.2-3.2,5-7.2,5-11.9,0-4.7-1.9-8.7-5.2-12.1h0Z"/>
      <path class="st2" d="M99.9,38.1c3.1-3,3.4-8.5,0-12l3.6-3.4c5.3,4.8,5.5,13.8,0,18.9-1.2-1.2-2.3-2.3-3.5-3.5Z"/>
      <path class="st2" d="M14.7,51.1l-3.6,3.4C-1.3,43-2.2,22.3,11.1,9.7l3.5,3.5c-5.2,5.2-8.1,11.6-8.1,19,0,7.3,3,13.6,8.2,18.9Z"/>
      <path class="st2" d="M22,44.2l-3.6,3.4c-8.7-8-9.1-22.4,0-31l3.4,3.6c-3.2,3.2-5,7.2-5,11.9s1.8,8.7,5.2,12.1h0Z"/>
      <path class="st2" d="M28.1,26.2c-3.1,3-3.4,8.5.1,12l-3.6,3.4c-5.3-4.8-5.5-13.8,0-18.9,1.2,1.2,2.3,2.3,3.5,3.5Z"/>
    </g>
  </g>
</svg>