<?xml version="1.0" encoding="UTF-8"?>
<svg id="Layer_1" xmlns="http://www.w3.org/2000/svg" xmlns:xlink="http://www.w3.org/1999/xlink" version="1.1" viewBox="0 0 82.9 66.5">
  <!-- Generator: Adobe Illustrator 29.2.1, SVG Export Plug-In . SVG Version: 2.1.0 Build 116)  -->
  <defs>
    <style>
      .st0 {
        fill: none;
      }

      .st1 {
        fill: #053242;
      }

      .st2 {
        fill: #096380;
      }

      .st3 {
        clip-path: url(#clippath);
      }
    </style>
    <clipPath id="clippath">
      <rect class="st0" x=".2" y="1" width="81.8" height="64.7"/>
    </clipPath>
  </defs>
  <g class="st3">
    <g>
      <path class="st1" d="M6.4,24.2L.2,18c20.9-21.8,58.6-23.4,81.7-.1l-6.3,6.2c-9.6-9.2-21.1-14.1-34.6-14.1S16.1,14.9,6.4,24.2h0Z"/>
      <path class="st1" d="M19.1,36.8c-2.1-2.1-4.2-4.2-6.3-6.3,14.6-15.3,40.9-15.9,56.5,0l-6.6,6c-5.7-5.5-13.1-8.6-21.6-8.6s-15.9,3.1-22,8.9Z"/>
      <path class="st1" d="M51.9,47.6c-5.5-5.4-15.5-6-21.8.2l-6.2-6.3c8.8-9.3,25.1-9.6,34.4,0-2.2,2.1-4.3,4.1-6.4,6.1Z"/>
      <path class="st2" d="M47.7,59.2c-.2,3.7-3.4,6.7-6.9,6.5-3.7-.2-6.6-3.3-6.4-6.9.2-3.8,3.3-6.7,7-6.5,3.6.2,6.5,3.4,6.3,6.9h0Z"/>
    </g>
  </g>
</svg>