<?xml version="1.0" encoding="UTF-8"?>
<svg id="Layer_1" xmlns="http://www.w3.org/2000/svg" xmlns:xlink="http://www.w3.org/1999/xlink" version="1.1" viewBox="0 0 68.7 69.1">
  <!-- Generator: Adobe Illustrator 29.2.1, SVG Export Plug-In . SVG Version: 2.1.0 Build 116)  -->
  <defs>
    <style>
      .st0 {
        fill: none;
      }

      .st1 {
        fill: #053242;
      }

      .st2 {
        fill: #0b6280;
        isolation: isolate;
        opacity: .6;
      }

      .st3 {
        fill: #fff;
      }

      .st4 {
        clip-path: url(#clippath);
      }
    </style>
    <clipPath id="clippath">
      <rect class="st0" x="1.8" y="1.9" width="65.1" height="65.2" rx="9" ry="9"/>
    </clipPath>
  </defs>
  <g class="st4">
    <g>
      <rect class="st2" x="1.8" y="1.9" width="65.1" height="65.1"/>
      <rect class="st1" x="1.8" y="1.9" width="65.1" height="65.1"/>
    </g>
  </g>
  <g>
    <path class="st3" d="M35,7.6c-.4-.4-1-.4-1.4,0l-6.9,6.8c-.6.6-.2,1.7.7,1.7h2.8c.6,0,1,.4,1,1v14.3c0,.6.4,1,1,1h4.2c.6,0,1-.4,1-1v-14.3c0-.6.4-1,1-1h2.8c.9,0,1.3-1.1.7-1.7l-6.9-6.8Z"/>
    <path class="st3" d="M52.1,16.1c.4-.4,1-.4,1.4,0l6.9,6.8c.6.6.2,1.7-.7,1.7h-2.8c-.6,0-1,.4-1,1v14.3c0,.6-.4,1-1,1h-4.3c-.6,0-1-.4-1-1v-14.3c0-.6-.4-1-1-1h-2.8c-.9,0-1.3-1.1-.7-1.7l7-6.8Z"/>
    <path class="st3" d="M15.2,16.1c.4-.4,1-.4,1.4,0l6.9,6.8c.6.6.2,1.7-.7,1.7h-2.8c-.6,0-1,.4-1,1v14.3c0,.6-.4,1-1,1h-4.2c-.6,0-1-.4-1-1v-14.3c0-.6-.4-1-1-1h-2.8c-.9,0-1.3-1.1-.7-1.7l6.9-6.8Z"/>
  </g>
  <path class="st3" d="M54.2,49.5c-2.1,0-3.9,1-6.7,4-1.6-1.7-2.9-2.8-3.8-3.3-.9-.5-1.8-.8-2.8-.8s-1.8.2-2.8.8c-.9.5-2.2,1.6-3.8,3.3h0c-1.6-1.7-2.9-2.8-3.8-3.3s-1.8-.8-2.8-.8-1.8.2-2.8.8c-.9.5-2.2,1.6-3.8,3.3-2.8-3-4.6-4-6.7-4s-5,2.3-5,5.4,2.1,5.3,5.2,5.3,4.3-1.7,6.5-3.7c2.7,2.8,4.6,3.8,6.6,3.8s3.9-.9,6.6-3.8c2.7,2.8,4.6,3.8,6.6,3.8s3.9-.9,6.6-3.8c2.2,2,4.1,3.7,6.5,3.7s5.2-2.2,5.2-5.3c0-3.2-2.1-5.4-5-5.4ZM14.6,57.9c-1.8,0-2.9-1.2-2.9-3s1.1-3.1,2.8-3.1,3.2,1.1,5.2,3.1c-1.9,1.9-3.7,3-5.1,3ZM27.8,57.9c-1.5,0-2.5-.5-5.1-3,2.7-2.6,3.9-3.2,5.1-3.2s2.4.5,5.1,3.2c-2.6,2.5-3.7,3-5.1,3ZM40.9,57.9c-1.5,0-2.5-.5-5.1-3,2.7-2.6,3.9-3.2,5.1-3.2s2.4.5,5.1,3.2c-2.6,2.5-3.6,3-5.1,3ZM54.1,57.9c-1.4,0-3.2-1-5.1-3,2-2,3.7-3.1,5.2-3.1s2.8,1.4,2.8,3.1-1.2,3-2.9,3Z"/>
</svg>